<?xml version="1.0" standalone="no"?>
<!DOCTYPE svg PUBLIC "-//W3C//DTD SVG 20010904//EN"
 "http://www.w3.org/TR/2001/REC-SVG-20010904/DTD/svg10.dtd">
<svg version="1.0" xmlns="http://www.w3.org/2000/svg"
 width="1934.000000pt" height="1312.000000pt" viewBox="0 0 1934.000000 1312.000000"
 preserveAspectRatio="xMidYMid meet">
<metadata>
Created by potrace 1.16, written by Peter Selinger 2001-2019
</metadata>
<g transform="translate(0.000000,1312.000000) scale(0.100000,-0.100000)"
fill="#000000" stroke="none">
<path d="M3100 12606 c-76 -22 -128 -54 -205 -127 -103 -98 -177 -220 -251
-410 -168 -436 -238 -1423 -159 -2259 8 -85 21 -265 30 -400 30 -483 124
-1320 211 -1865 72 -455 79 -582 41 -687 -13 -35 -76 -155 -140 -268 -65 -113
-193 -354 -284 -536 l-165 -332 -136 65 c-456 216 -878 369 -1142 413 -36 6
-76 13 -90 16 -34 7 104 -72 280 -161 269 -135 530 -242 923 -380 59 -20 107
-41 107 -45 0 -8 8 17 -130 -405 -61 -187 -136 -422 -165 -523 -29 -101 -56
-186 -59 -189 -3 -3 -56 1 -118 8 -173 21 -704 19 -882 -4 -210 -28 -266 -41
-319 -74 l-49 -30 39 -6 c21 -4 119 -11 218 -18 214 -13 563 0 876 32 110 11
203 19 205 17 5 -5 -21 -277 -40 -423 -18 -131 -74 -501 -81 -533 -6 -26 15
-17 -324 -139 -145 -52 -303 -111 -352 -132 -80 -35 -261 -132 -256 -138 13
-12 748 150 918 202 14 5 17 -14 22 -152 7 -190 27 -338 67 -495 74 -297 222
-526 495 -766 374 -331 782 -518 1440 -662 233 -51 626 -118 906 -154 423 -55
660 -72 1229 -86 212 -5 466 -17 565 -27 146 -13 313 -17 885 -18 l705 -2 83
-27 c46 -15 169 -69 275 -120 352 -172 739 -277 1352 -370 230 -35 632 -80
820 -91 55 -3 251 -17 434 -31 324 -25 359 -25 1045 -21 555 3 743 7 856 20
80 8 206 18 280 22 1273 59 2687 286 3565 572 388 127 642 237 900 391 186
111 285 198 374 331 96 141 188 402 211 597 39 325 -90 720 -339 1041 -38 48
-131 149 -207 224 -283 276 -505 433 -934 662 -49 26 -74 46 -81 65 -8 20 -6
76 7 217 15 148 19 271 18 555 0 416 -11 522 -84 870 -151 719 -148 667 -50
1000 144 489 248 1015 324 1650 36 295 76 709 86 880 6 102 20 302 33 445 20
236 22 323 22 945 0 662 -1 689 -22 805 -51 283 -153 493 -267 550 -97 49
-190 35 -556 -82 -381 -123 -802 -283 -1165 -443 -865 -383 -1464 -684 -2083
-1046 -218 -128 -314 -174 -364 -174 -59 0 -221 38 -418 98 -481 146 -1208
293 -1725 348 -449 47 -1080 67 -1421 45 -765 -51 -1540 -184 -2319 -400
l-140 -38 -70 61 c-38 33 -169 158 -290 276 -258 253 -268 262 -665 586 -602
491 -793 625 -1340 939 -512 294 -633 347 -810 351 -65 2 -122 -2 -150 -10z
m325 -162 c201 -64 715 -340 1120 -602 425 -274 1012 -726 1354 -1042 111
-102 391 -397 391 -411 0 -4 -40 -38 -90 -75 -49 -38 -88 -70 -86 -72 2 -2 59
13 127 32 589 166 1177 285 1679 340 597 66 780 75 1525 76 432 0 564 -3 770
-20 449 -36 803 -82 1192 -155 219 -41 348 -71 783 -185 85 -22 187 -43 225
-46 65 -6 75 -4 145 28 41 19 127 64 190 100 711 403 1686 863 2415 1140 553
210 1209 418 1318 418 52 0 96 -36 138 -115 52 -97 84 -215 103 -382 14 -121
16 -282 16 -1101 0 -931 -1 -969 -25 -1288 -77 -1011 -164 -1596 -329 -2223
-30 -113 -59 -233 -65 -265 -17 -92 -13 -287 9 -441 29 -209 68 -565 85 -785
9 -107 22 -262 31 -345 23 -233 27 -541 11 -775 -8 -113 -13 -206 -12 -208 2
-2 45 -7 96 -13 175 -17 235 -42 439 -187 461 -327 646 -504 828 -793 107
-169 156 -288 187 -451 50 -265 15 -629 -80 -819 -126 -252 -351 -433 -748
-606 -492 -213 -1116 -386 -1842 -509 -568 -96 -918 -139 -1730 -211 l-420
-38 -1170 0 c-1294 0 -1118 -6 -1800 66 -531 56 -1018 145 -1415 259 -415 118
-741 302 -965 543 -42 45 -126 154 -185 242 -60 88 -138 201 -174 250 -36 50
-86 126 -111 171 -51 91 -52 107 -7 203 36 77 131 168 316 301 188 136 288
227 334 303 19 31 62 120 96 199 91 207 100 223 140 242 89 42 175 43 461 5
565 -75 1256 -229 2064 -460 344 -99 512 -142 641 -164 172 -30 435 -56 662
-65 128 -5 418 -23 643 -39 226 -17 624 -44 885 -61 261 -16 512 -34 557 -40
333 -38 1055 -38 1383 1 372 43 713 130 945 241 73 34 205 107 205 113 0 5
-221 -61 -417 -126 -230 -75 -382 -109 -658 -148 -281 -39 -433 -51 -661 -51
-158 0 -453 19 -549 35 -16 3 -129 12 -250 20 -121 8 -454 33 -740 55 -286 22
-803 60 -1150 85 -808 58 -806 58 -1435 239 -825 237 -1354 365 -1915 463
-200 35 -221 37 -440 38 -289 0 -323 -8 -377 -89 -19 -30 -58 -107 -87 -172
-101 -227 -111 -244 -192 -328 -42 -45 -133 -121 -200 -171 -245 -177 -320
-249 -385 -369 -25 -46 -28 -61 -28 -151 -1 -91 2 -106 30 -165 73 -155 421
-639 586 -816 l59 -63 -943 5 -943 6 -535 44 c-918 76 -1303 128 -1765 239
-236 57 -422 112 -570 170 -165 63 -438 199 -565 280 -414 264 -673 617 -747
1015 -18 101 -26 499 -10 570 7 34 11 37 125 83 151 63 215 96 185 97 -21 0
-209 -24 -282 -36 l-34 -5 7 128 c26 474 124 962 301 1498 45 138 102 298 125
357 l42 107 78 3 79 3 -34 54 c-19 29 -37 66 -40 81 -21 97 493 1088 783 1510
253 368 327 466 683 911 l277 347 571 576 570 576 -33 78 c-144 332 -288 608
-529 1012 -197 330 -274 437 -582 805 -281 336 -421 471 -624 603 -105 68
-272 152 -371 186 -92 32 -89 29 125 -117 338 -230 545 -439 824 -831 59 -83
190 -263 290 -401 359 -490 637 -930 798 -1258 l38 -79 -50 -46 c-28 -26 -125
-114 -215 -196 -211 -191 -741 -721 -896 -896 -348 -393 -644 -767 -1023
-1293 -63 -87 -117 -154 -121 -150 -6 7 -50 371 -136 1108 -61 531 -92 1014
-105 1630 -26 1266 16 1771 191 2280 76 218 171 337 319 397 66 26 180 20 296
-18z"/>
<path d="M14483 10969 c-199 -105 -448 -291 -995 -746 -201 -167 -456 -405
-500 -466 l-20 -27 36 -49 c57 -77 169 -177 341 -304 437 -320 799 -641 1368
-1212 385 -385 499 -509 659 -714 68 -86 156 -191 198 -234 l75 -77 38 10 c47
14 67 44 107 165 76 231 217 764 290 1095 137 614 193 989 266 1760 19 199 14
543 -8 644 -13 59 -14 58 -36 -220 -55 -660 -103 -1061 -173 -1434 -80 -429
-240 -1096 -335 -1399 -52 -164 -127 -366 -144 -384 -4 -5 -32 22 -61 60 -92
116 -227 271 -380 438 -218 237 -746 757 -889 877 -264 220 -709 571 -1067
842 -79 59 -143 111 -143 116 0 12 80 102 214 238 168 172 564 512 818 703
230 173 450 359 425 359 -3 0 -41 -18 -84 -41z"/>
<path d="M10625 6933 c-140 -16 -212 -46 -257 -105 -51 -67 -162 -314 -174
-386 -13 -82 38 -228 108 -307 39 -45 174 -114 313 -161 170 -56 364 -87 830
-129 94 -9 185 -18 204 -22 l34 -6 -7 54 c-3 30 -9 140 -12 244 l-6 190 30 45
c17 25 74 92 126 150 53 58 96 108 96 111 0 11 -156 85 -248 119 -94 34 -464
141 -587 170 -136 32 -339 47 -450 33z"/>
<path d="M5217 6898 c-122 -12 -273 -52 -319 -84 -79 -55 -156 -194 -202 -364
-34 -128 -88 -391 -82 -405 6 -16 151 -71 208 -79 47 -7 433 16 587 35 175 21
322 58 378 94 40 26 75 103 114 251 41 155 87 285 143 404 19 41 32 78 28 82
-10 9 -294 55 -421 68 -120 12 -309 11 -434 -2z"/>
<path d="M15275 5544 c-11 -1 -69 -8 -130 -14 -553 -59 -1104 -289 -1473 -618
-40 -35 -71 -66 -69 -68 5 -5 93 32 392 166 360 161 556 240 845 340 289 100
454 161 496 184 l29 15 -35 -1 c-19 0 -44 -2 -55 -4z"/>
<path d="M14060 4044 c190 -86 522 -201 784 -269 265 -70 806 -164 879 -153
32 5 -357 157 -553 217 -369 112 -683 174 -1095 216 l-50 5 35 -16z"/>
<path d="M5030 4042 c0 -27 56 -167 92 -230 55 -96 169 -205 260 -250 109 -53
185 -65 388 -59 269 9 374 39 757 217 l232 107 128 -85 c167 -113 350 -205
450 -229 60 -14 116 -18 238 -17 143 1 169 4 250 28 170 50 339 151 455 271
l45 46 -95 -44 c-52 -25 -147 -70 -211 -101 -64 -30 -159 -70 -210 -88 -85
-29 -105 -32 -204 -32 -91 1 -125 6 -195 28 -157 51 -296 138 -500 315 -87 76
-109 91 -130 86 -14 -3 -149 -67 -300 -142 -449 -222 -509 -242 -750 -250
-175 -6 -234 2 -327 47 -71 33 -147 105 -247 235 -88 113 -126 158 -126 147z"/>
<path d="M14288 3133 c179 -214 400 -363 714 -483 l48 -18 -20 28 c-35 49
-235 234 -317 293 -101 72 -242 146 -364 192 -52 19 -96 35 -97 35 -2 0 14
-21 36 -47z"/>
</g>
</svg>
