<?xml version="1.0" standalone="no"?>
<!DOCTYPE svg PUBLIC "-//W3C//DTD SVG 20010904//EN"
 "http://www.w3.org/TR/2001/REC-SVG-20010904/DTD/svg10.dtd">
<svg version="1.0" xmlns="http://www.w3.org/2000/svg"
 width="747.000000pt" height="617.000000pt" viewBox="0 0 747.000000 617.000000"
 preserveAspectRatio="xMidYMid meet">
<metadata>
Created by potrace 1.16, written by Peter Selinger 2001-2019
</metadata>
<g transform="translate(0.000000,617.000000) scale(0.100000,-0.100000)"
fill="#000000" stroke="none">
<path d="M5744 6047 c-82 -45 -221 -126 -309 -179 -135 -81 -170 -108 -226
-170 -167 -186 -402 -489 -713 -920 -71 -98 -133 -178 -140 -178 -6 0 -65 9
-131 19 -346 57 -680 56 -935 -2 l-55 -13 -34 60 c-61 109 -181 288 -341 506
-86 118 -202 280 -257 360 -153 220 -198 261 -512 473 -117 78 -184 117 -202
117 -27 0 -286 -45 -322 -56 -10 -3 -58 -54 -107 -112 -90 -107 -90 -107 -134
-242 -63 -194 -90 -325 -141 -675 -25 -170 -54 -355 -64 -410 -31 -162 -32
-173 -41 -575 -6 -259 -14 -407 -23 -451 -8 -37 -39 -120 -70 -185 -79 -169
-123 -283 -152 -393 -15 -53 -47 -169 -72 -259 l-46 -163 -31 7 c-17 3 -67 20
-111 36 -231 85 -252 91 -326 96 -70 4 -81 2 -128 -23 -28 -16 -56 -34 -61
-40 -11 -14 134 -88 488 -250 l192 -88 0 -61 c0 -34 3 -84 6 -112 l6 -51 -258
-6 c-250 -5 -460 -22 -477 -37 -5 -4 12 -48 37 -97 l45 -90 113 5 c189 8 451
-23 634 -75 l62 -17 -47 -36 c-60 -48 -142 -96 -270 -160 -151 -75 -274 -154
-331 -212 -45 -46 -119 -172 -107 -184 6 -7 156 53 387 153 237 104 320 137
324 132 1 -2 31 -44 66 -94 221 -313 535 -624 819 -814 300 -200 431 -256 880
-375 l316 -84 318 -27 c326 -29 330 -29 647 -6 74 6 267 15 429 21 l295 11 90
39 c50 21 172 64 271 95 245 77 258 82 515 207 285 138 431 219 499 277 76 65
205 217 382 452 l151 201 38 -6 c74 -12 226 -68 370 -136 125 -59 228 -96 343
-124 26 -6 27 -5 17 14 -20 37 -124 135 -190 180 -36 24 -145 86 -243 137 -98
51 -203 109 -234 129 -50 32 -54 37 -41 52 26 31 112 137 114 140 1 2 59 13
129 24 l126 20 171 -26 c94 -15 172 -25 173 -24 1 2 21 42 43 91 l41 87 -237
0 c-130 0 -280 3 -333 6 l-97 7 -4 146 c-5 123 -3 148 10 158 8 7 114 45 235
84 252 82 348 127 431 200 54 49 57 53 37 61 -49 18 -148 20 -236 4 -71 -12
-290 -79 -396 -121 -20 -8 -48 84 -124 415 -72 308 -93 375 -166 529 l-59 124
0 384 c0 378 9 559 35 698 l13 70 -43 120 c-23 66 -45 149 -49 185 -11 104
-46 308 -68 395 -11 44 -28 124 -38 177 -17 85 -25 107 -69 171 -51 76 -218
257 -300 326 l-48 40 -149 -82z m-3774 -167 c47 -18 94 -40 104 -49 31 -27
319 -364 408 -479 46 -59 119 -159 162 -222 44 -63 107 -151 141 -195 96 -124
141 -199 330 -543 1 -1 87 14 191 33 247 46 303 54 459 65 123 8 135 7 210
-15 88 -27 495 -119 500 -113 1 1 38 64 80 138 179 314 404 625 669 925 202
228 296 309 474 403 152 80 224 81 275 3 89 -134 168 -327 201 -491 22 -110
44 -340 51 -540 8 -214 19 -340 40 -445 12 -57 19 -181 25 -435 10 -400 17
-468 59 -601 54 -167 120 -482 157 -744 11 -80 18 -219 21 -414 l5 -294 -53
-141 c-49 -131 -60 -151 -150 -271 -279 -372 -571 -664 -855 -855 -157 -107
-643 -296 -849 -330 -392 -67 -922 -77 -1410 -29 -365 36 -534 77 -760 184
-66 31 -158 68 -205 81 -47 14 -132 47 -189 75 -190 90 -334 199 -624 474
-213 201 -249 250 -366 505 -72 156 -107 295 -136 540 -38 318 -5 612 94 854
33 81 43 120 52 210 l12 110 90 131 c50 71 100 144 112 160 22 30 22 35 29
510 6 498 15 705 42 910 61 484 139 697 328 902 l67 72 62 -23 c34 -13 100
-38 147 -56z"/>
<path d="M1704 2585 c14 -125 76 -245 199 -386 l78 -89 223 0 224 0 80 123
c107 165 155 243 198 328 l36 72 -56 -31 c-30 -18 -108 -66 -173 -109 -134
-87 -209 -123 -304 -147 -86 -21 -91 -21 -120 10 -73 80 -349 284 -382 284 -6
0 -7 -23 -3 -55z"/>
<path d="M4850 2449 l0 -164 83 -66 c181 -145 256 -182 367 -183 69 -1 83 3
168 43 104 50 163 104 207 191 26 52 116 290 109 290 -8 0 -186 -153 -272
-233 -103 -97 -88 -93 -212 -57 -88 26 -175 85 -300 205 -58 55 -115 109 -127
119 l-23 19 0 -164z"/>
<path d="M3000 1355 c0 -55 3 -123 6 -152 l7 -52 179 -81 c99 -45 187 -82 196
-82 10 -1 86 35 171 79 l154 81 77 -33 c70 -30 279 -101 406 -138 l51 -15 120
202 c77 129 116 203 109 208 -6 3 -40 9 -76 12 l-65 6 -66 -117 -65 -118 -58
-3 c-81 -4 -146 17 -340 110 l-170 82 -92 -98 -92 -99 -79 8 -78 7 -147 146
-148 147 0 -100z"/>
</g>
</svg>
