<svg id="Capa_1" enable-background="new 0 0 512 512" height="512" viewBox="0 0 512 512" width="512" xmlns="http://www.w3.org/2000/svg"><g><path d="m139.071 179.118h30v-32.722l-15.878-20.563v-18.119h-30v28.353l15.878 20.563z"/><path d="m209.897 179.118h30v-32.722l-15.878-20.563v-18.119h-30v28.353l15.878 20.563z"/><path d="m283.641 396.697h36.792c32.756 0 59.405-26.648 59.405-59.404s-26.649-59.405-59.405-59.405h-6.242c.822-9.865 1.246-19.743 1.246-29.571l-.045-34.146h-254.743v34.146c0 54.265 12.74 110.02 35.873 156.992l9.186 17.354h-105.708l20.011 41.112c14.259 29.296 44.525 48.225 77.106 48.225h214.552c32.582 0 62.848-18.93 77.106-48.225l20.011-41.112h-138.405s11.938-23.065 13.26-25.966zm36.792-88.809c16.214 0 29.405 13.191 29.405 29.405s-13.191 29.404-29.405 29.404h-24.855c6.52-18.938 11.516-38.715 14.864-58.81h9.991zm-119.557-2.362v25.959h-28v-25.959l14-14zm-77.536 86.334c-21.081-42.89-32.691-93.86-32.691-143.544v-4.146h81.146v20.012l-28.919 28.919v68.385h88v-68.385l-29.082-29.081v-19.85h83.641v4.146c0 49.684-11.609 100.653-32.69 143.544l-16.311 30.803h-96.784zm188.329 90.14h-214.552c-20.426 0-39.452-11.443-49.098-29.337h312.748c-9.646 17.894-28.672 29.337-49.098 29.337z"/><path d="m405.117 0c-58.936 0-106.883 47.947-106.883 106.883s47.947 106.883 106.883 106.883 106.883-47.948 106.883-106.883-47.947-106.883-106.883-106.883zm0 183.766c-42.394 0-76.883-34.489-76.883-76.883s34.49-76.883 76.883-76.883 76.883 34.489 76.883 76.883-34.489 76.883-76.883 76.883z"/><path d="m390.117 108.704-21.595 17.862 19.123 23.118 32.472-26.863v-58.646h-30z"/></g></svg>