<svg xmlns="http://www.w3.org/2000/svg" version="1.1" width="823" height="617" style=""><rect id="backgroundrect" width="100%" height="100%" x="0" y="0" fill="none" stroke="none"/>


































































































































<g class="currentLayer" style=""><title>Layer 1</title><path d="M 0.00 0.00 L 823.00 0.00 L 823.00 617.00 L 0.00 617.00 L 0.00 0.00 Z" fill="#f2f2f2" id="svg_1" class="selected"/><path d="M 430.00 12.99 C 471.62 12.60 513.27 21.48 551.06 38.95 C 596.12 59.68 635.55 92.40 664.19 132.91 C 647.13 132.98 630.06 132.93 613.00 132.93 C 608.46 132.98 603.65 132.55 599.41 134.44 C 592.43 137.34 587.77 144.41 587.93 151.99 C 587.91 164.81 587.84 177.65 588.00 190.47 C 585.56 191.73 582.75 192.86 580.69 194.70 C 579.00 197.41 580.57 201.08 584.00 200.92 C 586.56 200.35 588.93 198.77 591.31 197.67 C 594.92 202.73 600.74 205.78 606.98 205.64 C 626.66 205.62 646.35 205.64 666.02 205.63 C 675.24 205.84 683.53 198.62 684.67 189.48 C 685.15 183.95 684.66 178.34 684.92 172.79 C 685.92 172.78 686.92 172.77 687.92 172.77 C 698.03 193.62 705.65 215.65 710.41 238.33 C 677.94 238.34 645.47 238.32 613.00 238.33 C 609.12 238.35 605.32 238.18 601.53 238.53 C 599.49 239.28 597.59 240.47 595.66 241.47 C 593.53 242.60 591.40 243.71 589.28 244.86 C 591.40 245.97 593.53 247.06 595.65 248.18 C 597.57 249.20 599.49 250.29 601.47 251.20 C 604.98 251.43 608.43 251.32 612.00 251.33 C 645.63 251.33 679.25 251.33 712.88 251.33 C 714.27 260.30 715.32 269.30 715.93 278.35 C 688.03 278.38 659.84 278.32 631.98 278.38 C 628.21 278.29 625.40 281.25 625.46 284.98 C 625.39 303.58 625.50 322.28 625.41 340.90 C 625.56 385.18 625.38 429.72 625.49 474.02 C 625.41 477.15 627.79 480.04 630.95 480.31 C 637.13 480.66 643.37 480.31 649.56 480.46 C 639.83 492.50 628.70 502.91 617.34 513.35 C 603.10 499.17 588.99 484.79 574.60 470.78 C 574.06 454.39 574.92 437.94 574.15 421.57 C 574.81 415.05 574.76 409.01 574.13 402.51 C 574.22 401.01 574.35 399.52 574.42 398.02 C 574.63 330.63 574.43 263.37 574.60 196.00 C 574.66 153.13 574.50 110.25 574.69 67.38 C 518.12 67.21 461.57 67.34 405.00 67.26 C 362.67 67.14 320.33 67.25 278.00 67.20 C 273.74 67.24 269.51 67.31 265.27 66.93 C 312.77 32.27 371.20 13.19 430.00 12.99 Z" fill="#a6dae9" id="svg_2"/><path d="M 265.27 66.93 C 269.51 67.31 273.74 67.24 278.00 67.20 C 320.33 67.25 362.67 67.14 405.00 67.26 C 461.57 67.34 518.12 67.21 574.69 67.38 C 574.50 110.25 574.66 153.13 574.60 196.00 C 574.43 263.37 574.63 330.63 574.42 398.02 C 574.35 399.52 574.22 401.01 574.13 402.51 C 570.83 367.88 546.21 337.24 513.39 325.98 C 513.46 308.33 513.44 290.66 513.40 273.01 C 504.22 273.00 495.04 272.98 485.86 273.02 C 485.88 288.99 485.73 304.97 485.78 320.95 C 484.39 320.92 483.00 320.92 481.62 320.95 C 481.54 310.44 481.62 299.92 481.57 289.40 C 472.36 289.35 463.15 289.43 453.94 289.35 C 453.87 301.49 453.95 313.62 453.91 325.76 C 433.57 332.63 415.81 347.04 404.89 365.51 C 404.31 364.57 403.72 363.63 403.13 362.70 C 368.09 362.78 333.04 362.80 298.00 362.65 C 293.34 362.74 288.91 362.32 284.42 362.98 C 284.33 365.54 284.37 368.08 284.38 370.65 C 319.93 370.68 355.45 370.81 391.00 370.76 C 394.58 370.69 398.11 370.61 401.65 371.33 C 400.77 373.13 399.91 374.92 399.12 376.76 C 366.09 376.43 333.04 376.69 300.00 376.61 C 294.79 376.74 289.49 376.27 284.33 376.90 C 284.26 379.47 284.32 382.03 284.37 384.60 C 321.65 384.72 358.93 384.52 396.21 384.69 C 395.61 386.63 395.05 388.58 394.56 390.55 C 357.85 390.63 321.10 390.41 284.40 390.53 C 284.26 393.19 284.32 395.83 284.38 398.49 C 320.36 398.54 356.46 398.50 392.43 398.68 L 392.68 401.12 C 392.57 402.21 392.47 403.29 392.36 404.37 C 356.40 404.51 320.36 404.30 284.41 404.47 C 284.28 407.03 284.29 409.60 284.27 412.17 C 287.20 412.47 290.06 412.56 293.00 412.46 C 326.01 412.39 359.02 412.55 392.03 412.39 C 392.04 414.36 392.11 416.34 392.22 418.32 C 356.29 418.51 320.31 418.11 284.40 418.36 C 284.27 420.93 284.30 423.53 284.31 426.11 C 286.87 426.26 289.43 426.38 292.00 426.34 C 325.70 426.18 359.39 426.50 393.09 426.35 C 393.40 428.31 393.79 430.27 394.21 432.21 C 357.63 432.33 320.95 432.10 284.39 432.32 C 284.27 434.89 284.30 437.43 284.32 440.01 C 291.18 440.49 298.11 440.17 305.00 440.25 C 335.45 440.18 365.92 440.40 396.36 440.15 C 397.01 442.16 397.75 444.14 398.52 446.10 C 360.50 446.40 322.37 445.86 284.37 446.20 C 284.26 448.80 284.30 451.36 284.33 453.96 C 292.20 454.39 300.11 454.06 308.00 454.16 C 339.39 454.05 370.80 454.38 402.19 454.12 C 409.78 468.69 421.26 481.13 435.24 489.78 C 450.35 499.22 468.19 503.98 486.00 503.43 C 505.11 502.94 523.76 496.30 538.90 484.64 C 542.49 488.33 546.07 492.03 549.66 495.72 C 549.13 496.26 548.60 496.79 548.07 497.33 C 545.85 499.56 543.65 501.82 541.41 504.04 C 546.26 508.90 551.12 513.74 555.98 518.60 C 552.32 518.77 548.66 518.76 545.00 518.74 C 474.12 518.77 403.29 518.56 332.40 518.68 C 306.66 518.55 280.93 518.63 255.19 518.58 C 254.83 513.05 255.03 507.54 255.00 502.00 C 254.98 468.33 255.01 434.67 255.08 401.00 C 255.14 396.91 254.88 392.84 254.76 388.76 C 254.97 386.31 255.08 383.86 255.06 381.40 C 254.98 376.17 255.12 370.93 255.09 365.69 C 254.82 357.00 255.67 348.11 254.57 339.48 C 254.79 336.65 255.10 333.84 255.10 331.00 C 254.99 307.36 255.11 283.72 255.16 260.08 C 255.20 255.68 255.19 251.27 255.16 246.86 C 255.15 244.66 255.15 242.46 255.16 240.26 C 255.20 235.84 255.20 231.42 255.14 226.99 C 255.13 224.89 255.13 222.79 255.14 220.69 C 255.20 216.22 255.20 211.77 255.15 207.30 C 255.13 205.18 255.13 203.05 255.15 200.93 C 255.20 196.52 255.19 192.11 255.16 187.70 C 255.15 185.53 255.15 183.36 255.16 181.19 C 255.19 176.76 255.20 172.32 255.16 167.88 C 255.11 157.52 255.09 147.15 255.23 136.79 C 255.25 116.06 255.28 95.32 255.21 74.58 C 255.19 72.15 255.21 69.71 255.23 67.27 C 258.56 67.13 261.93 66.85 265.27 66.93 Z" fill="#ffffff" id="svg_3" class=""/><path d="M 255.21 74.58 C 255.28 95.32 255.25 116.06 255.23 136.79 C 250.09 136.75 244.95 136.77 239.81 136.78 C 225.63 136.85 211.46 136.56 197.28 136.75 C 213.14 113.33 232.99 92.08 255.21 74.58 Z" fill="#a6dae9" id="svg_4"/><path d="M 515.18 116.53 C 525.76 116.54 536.34 116.50 546.92 116.54 C 546.91 127.11 546.93 137.69 546.91 148.27 C 543.58 148.29 540.26 148.29 536.93 148.27 C 536.91 143.15 536.93 138.04 536.91 132.93 C 512.37 149.70 487.85 166.52 463.31 183.29 C 460.98 184.98 458.34 185.91 457.26 188.75 C 457.80 183.21 456.38 179.47 452.46 175.62 C 476.34 159.25 500.25 142.93 524.13 126.56 C 521.15 126.53 518.16 126.53 515.18 126.53 C 515.15 123.19 515.15 119.86 515.18 116.53 Z" fill="#ff6347" id="svg_5" class=""/><path d="M 613.00 132.93 C 630.06 132.93 647.13 132.98 664.19 132.91 C 671.65 132.54 678.79 135.91 682.45 142.55 C 685.00 146.83 684.87 151.21 684.94 156.02 C 684.89 159.79 685.00 163.46 685.36 167.22 C 685.21 169.07 685.03 170.93 684.92 172.79 C 684.66 178.34 685.15 183.95 684.67 189.48 C 683.53 198.62 675.24 205.84 666.02 205.63 C 646.35 205.64 626.66 205.62 606.98 205.64 C 600.74 205.78 594.92 202.73 591.31 197.67 C 589.99 195.38 588.88 192.97 588.00 190.47 C 587.84 177.65 587.91 164.81 587.93 151.99 C 587.77 144.41 592.43 137.34 599.41 134.44 C 603.65 132.55 608.46 132.98 613.00 132.93 Z" fill="#3f3d56" id="svg_6" class=""/><path d="M 723.97 132.96 C 743.64 132.93 763.35 132.92 783.01 132.96 C 790.30 132.94 797.12 137.23 800.13 143.89 C 802.34 148.50 801.79 153.04 801.84 158.00 C 801.71 162.99 802.33 167.89 801.91 172.87 C 800.35 181.76 803.55 190.29 798.63 197.48 C 795.02 202.55 789.31 205.72 783.03 205.63 C 765.03 205.65 747.00 205.62 729.00 205.64 C 724.70 205.60 720.75 206.02 716.70 204.32 C 710.06 201.70 705.29 195.18 704.98 188.03 C 704.78 182.95 705.01 177.85 704.90 172.77 C 704.85 170.89 704.75 169.02 704.65 167.15 C 704.83 163.43 705.09 159.72 704.95 155.99 C 704.84 151.68 704.73 147.69 706.71 143.72 C 709.83 137.09 716.64 132.86 723.97 132.96 Z" fill="#3f3d56" id="svg_7"/><path d="M 390.56 135.51 C 396.61 137.83 399.88 143.78 399.29 150.15 C 398.21 154.97 396.28 157.68 392.19 160.38 C 387.74 162.30 383.91 162.35 379.43 160.49 C 375.25 157.92 373.27 155.15 372.09 150.38 C 371.99 147.32 372.16 144.41 373.71 141.69 C 376.91 135.75 384.25 133.09 390.56 135.51 Z" fill="#3f3d56" id="svg_8" class=""/><path d="M 10.28 137.13 C 14.89 136.65 19.39 136.85 24.00 136.86 C 77.00 136.86 130.00 136.88 183.00 136.86 C 187.76 136.90 192.52 136.92 197.28 136.75 C 211.46 136.56 225.63 136.85 239.81 136.78 C 239.57 147.13 239.68 157.50 239.74 167.86 C 198.50 167.87 157.24 167.86 116.00 167.86 C 114.40 167.88 112.80 167.94 111.20 167.99 C 111.14 172.36 111.14 176.73 111.20 181.10 C 154.02 181.37 196.90 181.13 239.73 181.22 C 239.73 183.37 239.72 185.52 239.71 187.67 C 200.81 187.66 161.90 187.67 123.00 187.67 C 119.06 187.63 115.13 187.63 111.19 187.79 C 111.15 192.14 111.14 196.48 111.20 200.83 C 154.06 200.92 196.94 200.80 239.80 200.89 C 239.76 202.90 239.72 204.90 239.69 206.90 C 233.78 207.40 227.92 207.11 222.00 207.16 C 185.15 207.20 148.09 207.11 111.27 207.20 L 111.23 207.77 C 111.07 212.02 111.16 216.34 111.24 220.60 C 154.09 220.65 196.94 220.55 239.78 220.65 C 239.77 222.78 239.76 224.91 239.75 227.04 C 196.95 227.18 154.02 226.95 111.23 227.16 C 111.07 231.49 111.18 235.85 111.20 240.19 C 153.88 240.42 196.61 240.26 239.30 240.26 C 239.50 242.45 239.68 244.64 239.84 246.83 C 196.97 246.94 154.06 246.69 111.20 246.95 C 111.14 251.29 111.14 255.63 111.19 259.97 C 154.03 260.23 196.91 259.99 239.76 260.09 C 239.18 276.89 240.14 293.78 239.25 310.55 C 224.67 292.12 202.59 280.10 179.15 278.11 C 179.05 294.21 179.09 310.32 179.13 326.41 C 187.53 328.29 195.14 332.73 200.67 339.36 C 205.81 345.40 208.76 352.85 209.71 360.70 C 219.58 361.84 229.47 362.86 239.34 363.97 C 239.65 369.01 239.71 373.98 239.59 379.03 C 238.37 379.16 237.15 379.29 235.93 379.42 C 226.63 378.40 217.33 377.10 208.01 376.42 C 206.00 381.78 203.13 386.17 199.81 390.78 C 209.19 403.79 218.41 416.92 227.90 429.85 C 232.16 426.17 236.07 422.09 239.60 417.72 C 239.46 452.81 239.60 487.91 239.53 523.00 C 239.46 526.62 239.51 530.22 239.78 533.83 C 270.66 533.99 301.55 533.93 332.43 533.92 C 332.42 543.86 332.35 553.81 332.31 563.75 C 331.80 573.41 332.57 583.10 331.88 592.74 C 321.59 593.04 311.29 592.72 301.00 592.87 C 293.30 593.13 285.71 591.78 278.00 592.12 C 195.01 592.17 111.99 592.13 29.00 592.14 C 22.69 592.07 16.44 592.38 10.14 591.94 C 9.99 588.63 9.93 585.32 9.98 582.00 C 10.06 446.65 10.09 311.35 10.08 176.00 C 10.30 163.05 9.88 150.07 10.28 137.13 Z" fill="#ffffff" id="svg_9" class=""/><path d="M 239.81 136.78 C 244.95 136.77 250.09 136.75 255.23 136.79 C 255.09 147.15 255.11 157.52 255.16 167.88 C 250.02 167.87 244.88 167.88 239.74 167.86 C 239.68 157.50 239.57 147.13 239.81 136.78 Z" fill="#e5e5e5" id="svg_10"/><path d="M 609.98 140.66 C 617.96 140.57 625.95 140.67 633.93 140.64 C 633.70 159.73 633.74 178.90 633.91 197.99 C 625.93 197.96 617.95 198.06 609.97 197.96 C 602.06 197.82 595.63 190.88 595.76 183.01 C 595.76 173.67 595.70 164.32 595.79 154.99 C 595.91 147.36 602.33 140.80 609.98 140.66 Z" fill="#e1effa" id="svg_11"/><path d="M 633.93 140.64 C 643.29 140.64 652.65 140.62 662.01 140.63 C 667.59 140.52 672.81 143.69 675.37 148.63 C 677.44 152.39 677.05 156.86 677.05 161.00 C 676.77 168.69 677.20 176.36 676.91 184.04 C 676.82 191.35 670.29 197.77 663.03 197.95 C 653.33 198.07 643.61 197.95 633.91 197.99 C 633.74 178.90 633.70 159.73 633.93 140.64 Z" fill="#cee2f2" id="svg_12"/><path d="M 726.98 140.67 C 734.96 140.57 742.95 140.67 750.93 140.64 C 750.70 159.73 750.74 178.90 750.91 197.99 C 742.93 197.96 734.95 198.06 726.97 197.97 C 719.04 197.82 712.63 190.89 712.72 183.01 C 712.74 173.68 712.68 164.32 712.75 154.99 C 712.92 147.36 719.31 140.80 726.98 140.67 Z" fill="#e1effa" id="svg_13"/><path d="M 750.93 140.64 C 760.29 140.64 769.65 140.62 779.01 140.63 C 784.58 140.52 789.81 143.70 792.36 148.63 C 794.65 152.74 794.02 158.43 794.04 163.00 C 793.71 170.02 794.33 177.03 793.98 184.03 C 793.68 191.38 787.40 197.73 780.02 197.95 C 770.33 198.07 760.61 197.95 750.91 197.99 C 750.74 178.90 750.70 159.73 750.93 140.64 Z" fill="#cee2f2" id="svg_14"/><path d="M 372.09 150.38 C 373.27 155.15 375.25 157.92 379.43 160.49 C 353.47 179.56 327.56 198.70 301.64 217.81 C 299.14 214.50 296.68 211.15 294.22 207.80 C 320.15 188.62 346.14 169.53 372.09 150.38 Z" fill="#ff6347" id="svg_15" class=""/><path d="M 399.29 150.15 C 411.46 158.45 423.62 166.77 435.78 175.07 C 432.04 178.21 430.41 181.35 429.99 186.23 C 417.41 177.59 404.78 169.00 392.19 160.38 C 396.28 157.68 398.21 154.97 399.29 150.15 Z" fill="#ff6347" id="svg_16" class=""/><path d="M 704.95 155.99 C 705.09 159.72 704.83 163.43 704.65 167.15 C 704.12 166.38 703.57 165.63 703.01 164.89 C 698.84 159.73 691.15 159.72 686.98 164.89 C 686.43 165.66 685.89 166.43 685.36 167.22 C 685.00 163.46 684.89 159.79 684.94 156.02 C 691.71 152.24 698.18 152.17 704.95 155.99 Z" fill="#20364d" id="svg_17"/><path d="M 703.01 164.89 C 697.67 164.91 692.33 164.91 686.98 164.89 C 691.15 159.72 698.84 159.73 703.01 164.89 Z" fill="#f7f7f7" id="svg_18"/><path d="M 686.98 164.89 C 692.33 164.91 697.67 164.91 703.01 164.89 C 703.57 165.63 704.12 166.38 704.65 167.15 C 704.75 169.02 704.85 170.89 704.90 172.77 C 699.24 172.76 693.58 172.75 687.92 172.77 C 686.92 172.77 685.92 172.78 684.92 172.79 C 685.03 170.93 685.21 169.07 685.36 167.22 C 685.89 166.43 686.43 165.66 686.98 164.89 Z" fill="#50667e" id="svg_19"/><path d="M 83.88 167.34 C 83.90 171.28 83.90 175.22 83.89 179.15 C 70.43 179.17 56.97 179.17 43.52 179.15 C 43.50 175.23 43.50 171.30 43.49 167.38 C 56.95 167.30 70.42 167.37 83.88 167.34 Z" fill="#ff6347" id="svg_20" class=""/><path d="M 111.20 167.99 C 112.80 167.94 114.40 167.88 116.00 167.86 C 157.24 167.86 198.50 167.87 239.74 167.86 C 239.70 172.31 239.69 176.77 239.73 181.22 C 196.90 181.13 154.02 181.37 111.20 181.10 C 111.14 176.73 111.14 172.36 111.20 167.99 Z" fill="#cccccc" id="svg_21"/><path d="M 239.74 167.86 C 244.88 167.88 250.02 167.87 255.16 167.88 C 255.20 172.32 255.19 176.76 255.16 181.19 C 250.02 181.23 244.87 181.21 239.73 181.22 C 239.69 176.77 239.70 172.31 239.74 167.86 Z" fill="#b7b7b7" id="svg_22"/><path d="M 452.46 175.62 C 456.38 179.47 457.80 183.21 457.26 188.75 C 455.74 195.47 449.97 200.30 442.99 199.88 C 435.63 199.52 430.24 193.49 429.99 186.23 C 430.41 181.35 432.04 178.21 435.78 175.07 C 441.38 171.64 447.10 171.87 452.46 175.62 Z" fill="#3f3d56" id="svg_23" class=""/><path d="M 801.91 172.87 C 801.87 178.66 802.12 184.42 801.73 190.20 C 804.22 191.66 807.12 192.80 809.31 194.68 C 811.12 197.37 809.38 201.11 806.00 200.93 C 803.40 200.42 800.99 198.65 798.63 197.48 C 803.55 190.29 800.35 181.76 801.91 172.87 Z" fill="#50667e" id="svg_24"/><path d="M 239.73 181.22 C 244.87 181.21 250.02 181.23 255.16 181.19 C 255.15 183.36 255.15 185.53 255.16 187.70 C 250.01 187.63 244.86 187.65 239.71 187.67 C 239.72 185.52 239.73 183.37 239.73 181.22 Z" fill="#e5e5e5" id="svg_25"/><path d="M 111.19 187.79 C 115.13 187.63 119.06 187.63 123.00 187.67 C 161.90 187.67 200.81 187.66 239.71 187.67 C 239.69 192.08 239.69 196.49 239.80 200.89 C 196.94 200.80 154.06 200.92 111.20 200.83 C 111.14 196.48 111.15 192.14 111.19 187.79 Z" fill="#cccccc" id="svg_26"/><path d="M 239.71 187.67 C 244.86 187.65 250.01 187.63 255.16 187.70 C 255.19 192.11 255.20 196.52 255.15 200.93 C 250.03 200.85 244.92 200.86 239.80 200.89 C 239.69 196.49 239.69 192.08 239.71 187.67 Z" fill="#b7b7b7" id="svg_27"/><path d="M 588.00 190.47 C 588.88 192.97 589.99 195.38 591.31 197.67 C 588.93 198.77 586.56 200.35 584.00 200.92 C 580.57 201.08 579.00 197.41 580.69 194.70 C 582.75 192.86 585.56 191.73 588.00 190.47 Z" fill="#50667e" id="svg_28"/><path d="M 43.52 194.10 C 56.98 194.11 70.43 194.10 83.89 194.11 C 83.90 198.03 83.90 201.95 83.89 205.87 C 70.43 205.88 56.98 205.87 43.52 205.87 C 43.49 201.95 43.49 198.03 43.52 194.10 Z" fill="#4c8eb4" id="svg_29" class=""/><path d="M 239.80 200.89 C 244.92 200.86 250.03 200.85 255.15 200.93 C 255.13 203.05 255.13 205.18 255.15 207.30 C 250.00 207.40 244.86 207.29 239.72 207.52 C 204.83 207.71 169.89 207.55 135.00 207.60 C 127.08 207.66 119.14 207.45 111.23 207.77 L 111.27 207.20 C 148.09 207.11 185.15 207.20 222.00 207.16 C 227.92 207.11 233.78 207.40 239.69 206.90 C 239.72 204.90 239.76 202.90 239.80 200.89 Z" fill="#e5e5e5" id="svg_30"/><path d="M 255.15 207.30 C 255.20 211.77 255.20 216.22 255.14 220.69 C 250.02 220.57 244.90 220.59 239.78 220.65 C 239.71 216.27 239.68 211.90 239.72 207.52 C 244.86 207.29 250.00 207.40 255.15 207.30 Z" fill="#b7b7b7" id="svg_31"/><path d="M 111.23 207.77 C 119.14 207.45 127.08 207.66 135.00 207.60 C 169.89 207.55 204.83 207.71 239.72 207.52 C 239.68 211.90 239.71 216.27 239.78 220.65 C 196.94 220.55 154.09 220.65 111.24 220.60 C 111.16 216.34 111.07 212.02 111.23 207.77 Z" fill="#cccccc" id="svg_32"/><path d="M 43.57 221.11 C 45.64 220.70 47.89 220.71 50.00 220.73 C 61.29 220.86 72.58 220.65 83.86 220.83 C 83.93 224.75 83.93 228.67 83.82 232.59 C 70.39 232.56 56.96 232.64 43.54 232.55 C 43.55 228.74 43.32 224.91 43.57 221.11 Z" fill="#a6dae9" id="svg_33"/><path d="M 239.78 220.65 C 244.90 220.59 250.02 220.57 255.14 220.69 C 255.13 222.79 255.13 224.89 255.14 226.99 C 250.01 227.09 244.88 227.06 239.75 227.04 C 239.76 224.91 239.77 222.78 239.78 220.65 Z" fill="#e5e5e5" id="svg_34"/><path d="M 111.23 227.16 C 154.02 226.95 196.95 227.18 239.75 227.04 C 239.68 231.45 239.66 235.86 239.82 240.26 L 239.30 240.26 C 196.61 240.26 153.88 240.42 111.20 240.19 C 111.18 235.85 111.07 231.49 111.23 227.16 Z" fill="#cccccc" id="svg_35"/><path d="M 239.75 227.04 C 244.88 227.06 250.01 227.09 255.14 226.99 C 255.20 231.42 255.20 235.84 255.16 240.26 C 250.05 240.33 244.93 240.31 239.82 240.26 C 239.66 235.86 239.68 231.45 239.75 227.04 Z" fill="#b7b7b7" id="svg_36"/><path d="M 517.95 238.40 C 527.01 238.19 536.11 238.43 545.18 238.30 C 545.57 246.19 545.25 254.10 545.35 262.00 C 545.25 283.23 545.55 304.50 545.20 325.72 C 536.07 325.69 526.94 325.71 517.81 325.71 C 517.48 298.49 517.82 271.23 517.64 244.00 C 517.63 242.15 517.65 240.24 517.95 238.40 Z" fill="#9acae6" id="svg_37"/><path d="M 601.53 238.53 C 602.69 239.43 603.79 240.38 604.91 241.32 C 603.83 242.09 602.55 242.92 601.85 244.06 C 601.26 246.14 603.59 247.24 604.82 248.46 C 603.67 249.32 602.58 250.27 601.47 251.20 C 599.49 250.29 597.57 249.20 595.65 248.18 C 596.09 245.83 596.05 243.83 595.66 241.47 C 597.59 240.47 599.49 239.28 601.53 238.53 Z" fill="#efb26d" id="svg_38"/><path d="M 601.53 238.53 C 605.32 238.18 609.12 238.35 613.00 238.33 C 645.47 238.32 677.94 238.34 710.41 238.33 C 738.83 238.34 767.25 238.31 795.67 238.34 C 795.71 239.27 795.75 240.19 795.79 241.12 L 795.54 241.12 C 737.04 241.28 678.51 241.16 620.00 241.20 C 614.97 241.23 609.93 241.08 604.91 241.32 C 603.79 240.38 602.69 239.43 601.53 238.53 Z" fill="#ff6347" id="svg_39" class=""/><path d="M 795.67 238.34 C 797.63 238.34 799.59 238.34 801.55 238.34 L 801.55 241.12 C 799.63 241.11 797.71 241.11 795.79 241.12 C 795.75 240.19 795.71 239.27 795.67 238.34 Z" fill="#c62229" id="svg_40"/><path d="M 239.30 240.26 L 239.82 240.26 C 244.93 240.31 250.05 240.33 255.16 240.26 C 255.15 242.46 255.15 244.66 255.16 246.86 C 250.05 246.84 244.94 246.86 239.84 246.83 C 239.68 244.64 239.50 242.45 239.30 240.26 Z" fill="#e5e5e5" id="svg_41"/><path d="M 604.91 241.32 C 609.93 241.08 614.97 241.23 620.00 241.20 C 678.51 241.16 737.04 241.28 795.54 241.12 C 795.58 243.52 795.60 245.92 795.56 248.32 C 735.37 248.34 675.19 248.32 615.00 248.33 C 611.62 248.35 608.19 248.22 604.82 248.46 C 603.59 247.24 601.26 246.14 601.85 244.06 C 602.55 242.92 603.83 242.09 604.91 241.32 Z" fill="#f6e6b6" id="svg_42"/><path d="M 795.54 241.12 L 795.79 241.12 C 797.71 241.11 799.63 241.11 801.55 241.12 C 801.56 243.52 801.56 245.93 801.55 248.33 C 799.75 248.37 797.95 248.41 796.15 248.45 C 796.04 249.40 795.93 250.36 795.82 251.31 L 795.47 251.31 C 795.50 250.32 795.53 249.32 795.56 248.32 C 795.60 245.92 795.58 243.52 795.54 241.12 Z" fill="#f85967" id="svg_43"/><path d="M 595.66 241.47 C 596.05 243.83 596.09 245.83 595.65 248.18 C 593.53 247.06 591.40 245.97 589.28 244.86 C 591.40 243.71 593.53 242.60 595.66 241.47 Z" fill="#103754" id="svg_44"/><path d="M 111.20 246.95 C 154.06 246.69 196.97 246.94 239.84 246.83 C 239.64 251.25 239.68 255.67 239.76 260.09 C 196.91 259.99 154.03 260.23 111.19 259.97 C 111.14 255.63 111.14 251.29 111.20 246.95 Z" fill="#cccccc" id="svg_45" class=""/><path d="M 239.84 246.83 C 244.94 246.86 250.05 246.84 255.16 246.86 C 255.19 251.27 255.20 255.68 255.16 260.08 C 250.03 260.09 244.89 260.08 239.76 260.09 C 239.68 255.67 239.64 251.25 239.84 246.83 Z" fill="#b7b7b7" id="svg_46"/><path d="M 43.52 247.56 C 56.98 247.55 70.43 247.53 83.89 247.57 C 83.90 251.49 83.90 255.42 83.89 259.35 C 70.43 259.38 56.98 259.37 43.52 259.36 C 43.49 255.42 43.49 251.49 43.52 247.56 Z" fill="#3f3d56" id="svg_47" class=""/><path d="M604.82,248.46 C608.19,248.22 611.62,248.35 615,248.33 C675.19,248.32 735.37,248.34 795.56,248.32 C795.53,249.32 795.5,250.32 795.47,251.31 C767.94,251.34 740.41,251.31 712.88,251.33 C679.25,251.33 645.63,251.33 612,251.33 C608.43,251.32 604.98,251.43 601.47,251.2 C602.58,250.27 603.67,249.32 604.82,248.46 z" fill="#ff6347" id="svg_48" class=""/><path d="M 796.15 248.45 C 797.95 248.41 799.75 248.37 801.55 248.33 C 801.54 249.32 801.53 250.31 801.52 251.30 C 799.62 251.30 797.72 251.31 795.82 251.31 C 795.93 250.36 796.04 249.40 796.15 248.45 Z" fill="#c62229" id="svg_49"/><path d="M 239.76 260.09 C 244.89 260.08 250.03 260.09 255.16 260.08 C 255.11 283.72 254.99 307.36 255.10 331.00 C 255.10 333.84 254.79 336.65 254.57 339.48 C 251.19 329.75 246.92 320.48 240.58 312.30 C 240.14 311.71 239.70 311.13 239.25 310.55 C 240.14 293.78 239.18 276.89 239.76 260.09 Z" fill="#e5e5e5" id="svg_50"/><path d="M 359.07 264.59 C 368.30 264.59 377.54 264.47 386.77 264.66 C 386.68 285.00 386.81 305.34 386.71 325.68 C 377.50 325.66 368.30 325.60 359.10 325.63 C 359.04 305.28 359.09 284.94 359.07 264.59 Z" fill="#73accd" id="svg_51"/><path d="M 390.99 273.04 C 400.19 272.93 409.40 273.04 418.61 273.10 C 418.59 290.63 418.63 308.16 418.59 325.68 C 409.39 325.73 400.19 325.70 390.99 325.70 C 390.88 308.16 390.88 290.59 390.99 273.04 Z" fill="#87bbda" id="svg_52"/><path d="M 485.86 273.02 C 495.04 272.98 504.22 273.00 513.40 273.01 C 513.44 290.66 513.46 308.33 513.39 325.98 C 504.50 322.87 495.18 321.27 485.78 320.95 C 485.73 304.97 485.88 288.99 485.86 273.02 Z" fill="#87bbda" id="svg_53"/><path d="M 163.47 278.05 C 163.51 294.15 163.47 310.26 163.49 326.36 C 155.01 328.45 148.75 332.10 142.74 338.41 C 128.79 330.25 114.86 322.04 100.93 313.83 C 115.50 293.51 138.56 280.29 163.47 278.05 Z" fill="#4c8eb4" id="svg_54"/><path d="M 179.15 278.11 C 202.59 280.10 224.67 292.12 239.25 310.55 C 239.70 311.13 240.14 311.71 240.58 312.30 C 239.82 314.88 239.46 317.30 239.56 320.00 C 239.84 334.67 239.34 349.36 239.83 364.02 L 239.34 363.97 C 229.47 362.86 219.58 361.84 209.71 360.70 C 208.76 352.85 205.81 345.40 200.67 339.36 C 195.14 332.73 187.53 328.29 179.13 326.41 C 179.09 310.32 179.05 294.21 179.15 278.11 Z" fill="#ff6347" id="svg_55" class=""/><path d="M631.9182869310791,278.3807881320547 C659.5165945304302,278.31952613483185 687.4418023992639,278.3807881320547 715.0797342737038,278.3501571334433 C729.2949429618117,278.3705777991843 743.5596819937807,278.30931580196136 757.7649846131166,278.3705777991843 C761.4104179212864,278.2991054690909 764.1742111087303,281.4132569945883 764.1147746960971,285.10939749370334 C764.2039293150469,304.1006166328024 764.0751504210084,323.19393910060637 764.1742111087303,342.19536857257594 C723.9555718935957,342.1341065753531 683.7369326784609,342.0728445781302 643.5083873945538,342.1851582397055 C637.4755915122837,342.20557890544643 631.4427956300135,342.1443169082235 625.4099997477433,342.2157892383169 C625.4991543666931,323.2041494334768 625.390187610199,304.11082696567286 625.4595300916043,285.11960782657377 C625.4000936789711,281.31115366588347 628.1836990039594,278.2888951362204 631.9182869310791,278.3807881320547 z" fill="#3f3d56" id="svg_56" class=""/><path d="M 453.94 289.35 C 463.15 289.43 472.36 289.35 481.57 289.40 C 481.62 299.92 481.54 310.44 481.62 320.95 C 472.18 321.16 462.84 322.71 453.91 325.76 C 453.95 313.62 453.87 301.49 453.94 289.35 Z" fill="#73accd" id="svg_57"/><path d="M 327.24 289.72 C 336.43 289.68 345.62 289.68 354.81 289.72 C 354.81 301.69 354.83 313.66 354.80 325.62 C 345.59 325.63 336.39 325.63 327.19 325.62 C 327.17 313.66 327.13 301.69 327.24 289.72 Z" fill="#609dc1" id="svg_58"/><path d="M 640.24 292.38 C 642.13 292.18 644.09 292.20 646.00 292.20 C 681.26 292.30 716.53 292.13 751.78 292.29 C 752.30 297.87 751.96 303.38 752.05 309.00 C 751.96 314.90 752.29 320.80 751.81 326.65 C 714.56 326.79 677.30 326.73 640.05 326.68 C 639.51 318.15 639.95 309.55 639.80 301.00 C 639.89 298.20 639.45 295.08 640.24 292.38 Z" fill="#ff6347" id="svg_59" class=""/><path d="M 422.94 299.32 C 432.13 299.32 441.32 299.27 450.51 299.35 C 450.54 308.08 450.57 316.82 450.45 325.55 C 441.29 325.89 432.10 325.63 422.94 325.69 C 422.76 316.92 422.75 308.09 422.94 299.32 Z" fill="#9acae6" id="svg_60"/><path d="M 295.43 300.42 C 304.59 300.59 313.75 300.44 322.91 300.51 C 322.90 308.88 322.92 317.26 322.89 325.63 C 313.69 325.62 304.50 325.63 295.31 325.62 C 295.36 317.23 295.13 308.81 295.43 300.42 Z" fill="#4c8eb4" id="svg_61"/><path d="M 240.58 312.30 C 246.92 320.48 251.19 329.75 254.57 339.48 C 255.67 348.11 254.82 357.00 255.09 365.69 C 249.99 365.18 244.91 364.59 239.83 364.02 C 239.34 349.36 239.84 334.67 239.56 320.00 C 239.46 317.30 239.82 314.88 240.58 312.30 Z" fill="#ff6347" id="svg_62" class=""/><path d="M 481.62 320.95 C 483.00 320.92 484.39 320.92 485.78 320.95 C 495.18 321.27 504.50 322.87 513.39 325.98 C 546.21 337.24 570.83 367.88 574.13 402.51 C 574.76 409.01 574.81 415.05 574.15 421.57 C 572.55 438.46 565.95 454.73 555.52 468.10 C 550.68 474.24 545.07 479.83 538.90 484.64 C 523.76 496.30 505.11 502.94 486.00 503.43 C 468.19 503.98 450.35 499.22 435.24 489.78 C 421.26 481.13 409.78 468.69 402.19 454.12 C 400.85 451.50 399.63 448.83 398.52 446.10 C 397.75 444.14 397.01 442.16 396.36 440.15 C 395.54 437.53 394.82 434.88 394.21 432.21 C 393.79 430.27 393.40 428.31 393.09 426.35 C 392.70 423.68 392.38 421.01 392.22 418.32 C 392.11 416.34 392.04 414.36 392.03 412.39 C 392.04 409.71 392.13 407.04 392.36 404.37 C 392.47 403.29 392.57 402.21 392.68 401.12 C 393.14 397.57 393.73 394.04 394.56 390.55 C 395.05 388.58 395.61 386.63 396.21 384.69 C 397.07 382.01 398.04 379.36 399.12 376.76 C 399.91 374.92 400.77 373.13 401.65 371.33 C 402.68 369.37 403.76 367.43 404.89 365.51 C 415.81 347.04 433.57 332.63 453.91 325.76 C 462.84 322.71 472.18 321.16 481.62 320.95 Z" fill="#3f3d56" id="svg_63" class=""/><path d="M 92.98 327.31 C 106.92 335.47 120.84 343.69 134.76 351.90 C 132.93 357.81 131.98 363.84 133.03 370.01 C 134.95 383.68 144.60 395.63 157.51 400.48 C 167.09 404.22 177.57 403.70 186.99 399.72 C 196.39 412.80 205.77 425.90 215.11 439.02 C 193.53 451.89 166.53 454.46 142.83 446.22 C 124.03 439.73 107.74 426.60 97.35 409.65 C 88.94 396.00 84.49 380.03 84.59 364.00 C 84.61 351.31 87.60 338.78 92.98 327.31 Z" fill="#3f3d56" id="svg_64" class=""/><path d="M625.4099997477311,340.8996697458755 C631.4427928893347,340.83032949478735 637.4755860309382,340.88976399572005 643.5083791725416,340.86995249540917 C647.7481746809264,345.6049010697137 652.6219583027143,349.67616438360324 656.9509083895464,354.3219612065088 C651.2945456902761,354.38139570744147 645.628276926734,354.23280945510976 639.9719142274637,354.3913014575969 C639.3874564354201,360.02767329604734 639.6252019779463,365.7928198865186 639.8629475204725,371.44900322527997 C651.6709761326093,371.5975894776117 663.49881687329,371.46881472559085 675.3068454854268,371.5183434763681 C684.3213639728804,380.2056863626968 693.1971975605269,389.0416155013572 702.3702130763312,397.5605606350433 C702.380119140603,399.2445381614696 702.390025204875,400.9285156878959 702.3999312691469,402.6124932143222 C704.5198290233393,402.7511737164985 706.6496328418035,402.84032546789757 708.7794366602678,402.86013696820845 C712.2564652197142,407.77338904531115 716.6943820135374,411.2106843492519 720.9044593291063,415.47015691609494 C725.1442548374911,419.4324569782745 728.6014712683935,423.69192954511755 733.683282239892,426.67356034190766 C733.7030943684358,429.0905633798372 733.7130004327078,431.4976606676113 733.7328125612516,433.9047579553854 C736.0211134080668,434.0335327074062 738.3193203191538,434.13259020896066 740.6076211659689,434.1424959591161 C745.3229077594061,439.10527678699606 750.3254702167292,443.76097936005704 755.3181266097803,448.4364934334289 C758.1215427987356,451.1902919766437 760.9348650519629,453.8945617690813 764.1246177475233,456.2125073054563 C764.0849934904355,461.73001014204135 764.2533965830584,467.25741872878183 764.1048056189794,472.77492156536687 C764.0849934904355,476.2815571203958 761.3509197513838,479.1938476660978 757.7748305492181,479.0947901645433 C721.8059111778517,479.1740361657869 685.3416885928888,479.0749786642324 649.3331449644346,479.1443189153205 C643.2012911801119,478.9957326629888 637.0199070744295,479.34243391842955 630.8979593543787,478.9957326629888 C627.7676430444498,478.7282774087917 625.4099997477311,475.86551561386693 625.4892482619066,472.7650158152114 C625.3802815549154,428.8825426265728 625.5585907118101,384.7623314342033 625.4099997477311,340.8996697458755 z" fill="#3f3d56" id="svg_65" class=""/><path d="M642.3642105388641,340.87 C682.9742105388641,340.76 723.5742105388641,340.82 764.1742105388641,340.88 C764.0942105388641,379.69 764.1942105388641,418.5 764.1242105388642,457.31 C760.9042105388642,454.97 758.0642105388641,452.24 755.2342105388641,449.46 C750.1942105388641,444.74 745.1442105388642,440.04 740.3842105388642,435.03 C743.7942105388641,435.03 747.1942105388641,434.99 750.5942105388641,434.89 C750.9242105388641,429.2 750.8342105388641,423.51 750.6742105388641,417.81 C744.9942105388641,417.57 739.2842105388642,417.54 733.6142105388641,417.78 C733.2842105388642,421.02 733.3542105388641,424.24 733.3942105388642,427.49 C728.2642105388642,424.48 724.7742105388642,420.18 720.4942105388641,416.18 C716.2442105388641,411.88 711.7642105388642,408.41 708.2542105388642,403.45 C711.8442105388641,403.43 715.4342105388641,403.41 719.0242105388642,403.25 C719.0342105388642,397.53 719.1842105388641,391.85 718.9142105388642,386.14 C713.2542105388642,386.13 707.5642105388641,385.96 701.9142105388642,386.22 C701.6942105388641,390.17 701.7942105388641,394.15 701.7842105388642,398.1 C692.5242105388642,389.5 683.5642105388641,380.58 674.4642105388641,371.81 C678.7642105388642,371.81 683.0542105388641,371.85 687.3442105388641,371.68 C687.3942105388642,366.19 687.6742105388641,360.63 687.2842105388642,355.16 C686.9242105388641,354.1 684.6142105388641,354.63 683.7142105388641,354.44 C674.4542105388641,354.48 665.1942105388641,354.48 655.9342105388641,354.45 C651.5642105388641,349.76 646.6442105388642,345.65 642.3642105388641,340.87 z" fill="#3f3d56" id="svg_66" class=""/><path d="M 484.00 344.37 C 500.98 344.44 517.57 351.21 529.88 362.87 C 524.12 362.74 518.36 362.78 512.60 362.92 C 493.54 362.85 474.48 362.86 455.42 362.91 C 452.01 362.79 448.62 362.70 445.21 362.90 C 442.59 362.91 440.02 362.58 437.42 362.32 C 449.94 350.64 466.88 344.11 484.00 344.37 Z" fill="#ffffff" id="svg_67"/><path d="M 640.11 354.52 C 645.82 354.36 651.54 354.51 657.25 354.45 C 666.51 354.48 675.77 354.48 685.03 354.44 C 685.93 354.63 688.24 354.10 688.60 355.16 C 688.99 360.63 688.71 366.19 688.66 371.68 C 684.37 371.85 680.08 371.81 675.78 371.81 C 663.86 371.76 651.92 371.89 640.00 371.74 C 639.76 366.03 639.52 360.21 640.11 354.52 Z" fill="#4c8eb4" id="svg_68" class=""/><path d="M703.32,354.6 C707.52,354.24 711.79,354.51 716.01,354.4 C717.25,354.55 719.25,354.11 720.22,354.97 C720.46,360.51 720.49,366.27 720.12,371.8 C714.49,371.8 708.86,371.92 703.23,371.71 C703.11,366.03 702.86,360.26 703.32,354.6 z" fill="#ff6347" id="svg_69" class=""/><path d="M 751.85 354.52 C 752.22 360.24 752.19 366.00 751.87 371.72 C 746.21 371.84 740.56 371.79 734.91 371.76 C 734.53 366.12 734.73 360.44 734.73 354.79 C 740.36 354.08 746.17 354.61 751.85 354.52 Z" fill="#f2f9ff" id="svg_70"/><path d="M 437.42 362.32 C 440.02 362.58 442.59 362.91 445.21 362.90 C 443.24 365.42 441.46 368.14 439.67 370.80 C 436.33 370.83 433.00 370.72 429.67 370.73 C 432.02 367.75 434.59 364.86 437.42 362.32 Z" fill="#ededed" id="svg_71"/><path d="M 284.42 362.98 C 288.91 362.32 293.34 362.74 298.00 362.65 C 333.04 362.80 368.09 362.78 403.13 362.70 C 403.72 363.63 404.31 364.57 404.89 365.51 C 403.76 367.43 402.68 369.37 401.65 371.33 C 398.11 370.61 394.58 370.69 391.00 370.76 C 355.45 370.81 319.93 370.68 284.38 370.65 C 284.37 368.08 284.33 365.54 284.42 362.98 Z" fill="#cccccc" id="svg_72"/><path d="M 445.21 362.90 C 448.62 362.70 452.01 362.79 455.42 362.91 C 452.16 365.17 446.65 366.62 445.70 370.80 C 443.69 370.79 441.68 370.79 439.67 370.80 C 441.46 368.14 443.24 365.42 445.21 362.90 Z" fill="#d1d1d1" id="svg_73"/><path d="M 455.42 362.91 C 474.48 362.86 493.54 362.85 512.60 362.92 C 516.94 365.33 521.20 367.82 525.17 370.81 C 520.22 370.80 515.41 371.02 510.48 370.84 C 503.62 368.07 496.32 367.71 489.00 367.98 C 484.01 368.22 479.13 368.81 474.50 370.80 C 464.90 370.89 455.30 370.83 445.70 370.80 C 446.65 366.62 452.16 365.17 455.42 362.91 Z" fill="#ededed" id="svg_74"/><path d="M 512.60 362.92 C 518.36 362.78 524.12 362.74 529.88 362.87 C 532.48 365.35 534.89 368.00 537.09 370.83 C 533.12 370.87 529.15 370.84 525.17 370.81 C 521.20 367.82 516.94 365.33 512.60 362.92 Z" fill="#d1d1d1" id="svg_75"/><path d="M 239.34 363.97 L 239.83 364.02 C 244.91 364.59 249.99 365.18 255.09 365.69 C 255.12 370.93 254.98 376.17 255.06 381.40 C 249.94 380.92 244.84 380.35 239.73 379.85 C 238.46 379.72 237.19 379.57 235.93 379.42 C 237.15 379.29 238.37 379.16 239.59 379.03 C 239.71 373.98 239.65 369.01 239.34 363.97 Z" fill="#e5e5e5" id="svg_76"/><path d="M 489.00 367.98 C 496.32 367.71 503.62 368.07 510.48 370.84 C 498.49 370.84 486.49 370.90 474.50 370.80 C 479.13 368.81 484.01 368.22 489.00 367.98 Z" fill="#d1d1d1" id="svg_77"/><path d="M 429.67 370.73 C 433.00 370.72 436.33 370.83 439.67 370.80 C 441.68 370.79 443.69 370.79 445.70 370.80 C 455.30 370.83 464.90 370.89 474.50 370.80 C 486.49 370.90 498.49 370.84 510.48 370.84 C 515.41 371.02 520.22 370.80 525.17 370.81 C 529.15 370.84 533.12 370.87 537.09 370.83 C 538.55 372.74 539.92 374.71 541.20 376.74 C 538.28 376.73 535.36 376.78 532.44 376.91 C 534.39 379.70 536.50 382.28 538.81 384.77 C 540.98 384.70 543.15 384.62 545.32 384.53 C 553.07 401.63 553.12 421.73 545.77 438.97 C 545.37 436.77 545.02 434.56 544.71 432.34 C 507.46 432.28 470.20 432.26 432.95 432.35 C 433.71 434.86 434.62 438.72 436.95 440.19 C 440.26 440.56 443.67 440.31 447.00 440.35 C 479.72 440.35 512.44 440.33 545.16 440.36 C 544.21 442.35 543.17 444.30 542.07 446.22 C 508.23 446.31 474.41 446.16 440.57 446.16 C 435.26 446.06 429.96 446.04 424.66 446.32 C 412.45 425.65 412.43 399.24 424.40 378.45 C 424.97 380.27 425.02 383.11 426.25 384.59 C 428.35 384.91 430.54 384.81 432.66 384.79 C 462.77 384.62 492.89 384.77 523.00 384.72 C 527.68 384.66 532.28 385.01 536.95 384.36 C 533.19 381.28 528.22 376.22 523.01 376.65 C 504.35 376.69 485.66 376.69 467.00 376.66 C 464.11 376.71 460.98 376.38 458.16 377.07 C 455.66 378.05 453.43 379.92 451.25 381.47 C 450.53 379.89 449.82 378.31 449.11 376.73 C 444.71 376.65 440.32 376.60 435.92 376.75 C 432.44 376.81 428.97 376.66 425.50 376.69 C 426.82 374.64 428.13 372.64 429.67 370.73 Z" fill="#ffffff" id="svg_78"/><path d="M 208.01 376.42 C 217.33 377.10 226.63 378.40 235.93 379.42 C 237.19 379.57 238.46 379.72 239.73 379.85 C 239.41 389.56 239.75 399.28 239.51 409.00 C 239.40 411.62 239.77 414.06 240.46 416.58 C 240.18 416.97 239.89 417.34 239.60 417.72 C 236.07 422.09 232.16 426.17 227.90 429.85 C 218.41 416.92 209.19 403.79 199.81 390.78 C 203.13 386.17 206.00 381.78 208.01 376.42 Z" fill="#a6dae9" id="svg_79"/><path d="M 284.33 376.90 C 289.49 376.27 294.79 376.74 300.00 376.61 C 333.04 376.69 366.09 376.43 399.12 376.76 C 398.04 379.36 397.07 382.01 396.21 384.69 C 358.93 384.52 321.65 384.72 284.37 384.60 C 284.32 382.03 284.26 379.47 284.33 376.90 Z" fill="#cccccc" id="svg_80"/><path d="M 425.50 376.69 C 428.97 376.66 432.44 376.81 435.92 376.75 C 434.62 379.35 433.63 382.06 432.66 384.79 C 430.54 384.81 428.35 384.91 426.25 384.59 C 425.02 383.11 424.97 380.27 424.40 378.45 C 424.75 377.86 425.12 377.27 425.50 376.69 Z" fill="#ededed" id="svg_81"/><path d="M 435.92 376.75 C 440.32 376.60 444.71 376.65 449.11 376.73 C 449.82 378.31 450.53 379.89 451.25 381.47 C 453.43 379.92 455.66 378.05 458.16 377.07 C 460.98 376.38 464.11 376.71 467.00 376.66 C 485.66 376.69 504.35 376.69 523.01 376.65 C 528.22 376.22 533.19 381.28 536.95 384.36 C 532.28 385.01 527.68 384.66 523.00 384.72 C 492.89 384.77 462.77 384.62 432.66 384.79 C 433.63 382.06 434.62 379.35 435.92 376.75 Z" fill="#d1d1d1" id="svg_82"/><path d="M 532.44 376.91 C 535.36 376.78 538.28 376.73 541.20 376.74 C 542.73 379.25 544.09 381.86 545.32 384.53 C 543.15 384.62 540.98 384.70 538.81 384.77 C 536.50 382.28 534.39 379.70 532.44 376.91 Z" fill="#d1d1d1" id="svg_83"/><path d="M 239.73 379.85 C 244.84 380.35 249.94 380.92 255.06 381.40 C 255.08 383.86 254.97 386.31 254.76 388.76 C 251.30 398.73 246.89 408.16 240.46 416.58 C 239.77 414.06 239.40 411.62 239.51 409.00 C 239.75 399.28 239.41 389.56 239.73 379.85 Z" fill="#95c4d1" id="svg_84"/><path d="M 640.03 386.26 C 645.68 385.91 651.38 386.14 657.03 386.18 C 657.24 391.89 657.14 397.56 657.10 403.27 C 651.36 403.47 645.60 403.45 639.86 403.28 C 639.88 397.63 639.49 391.88 640.03 386.26 Z" fill="#f2f9ff" id="svg_85"/><path d="M 672.11 386.25 C 677.60 385.89 683.17 386.13 688.67 386.20 C 688.84 391.84 688.72 397.48 688.77 403.13 C 683.10 403.67 677.36 403.28 671.66 403.39 C 671.26 397.89 671.27 392.15 671.55 386.65 L 672.11 386.25 Z" fill="#f2f9ff" id="svg_86"/><path d="M701.9142105388642,386.22 C707.5642105388641,385.96 713.2542105388642,386.13 718.9142105388642,386.14 C719.1842105388641,391.85 719.0342105388642,397.53 719.0242105388642,403.25 C715.4342105388641,403.41 711.8442105388641,403.43 708.2542105388642,403.45 C706.1042105388641,403.43 703.9542105388641,403.34 701.8142105388641,403.2 C701.8042105388641,401.5 701.7942105388641,399.8 701.7842105388642,398.1 C701.7942105388641,394.15 701.6942105388641,390.17 701.9142105388642,386.22 z" fill="#f2f9ff" id="svg_87" class=""/><path d="M 734.83 386.15 C 740.53 386.08 746.22 386.05 751.91 386.17 C 752.20 391.87 752.12 397.53 751.97 403.24 C 746.26 403.52 740.50 403.43 734.78 403.30 C 734.69 397.59 734.61 391.84 734.83 386.15 Z" fill="#f2f9ff" id="svg_88"/><path d="M 254.76 388.76 C 254.88 392.84 255.14 396.91 255.08 401.00 C 255.01 434.67 254.98 468.33 255.00 502.00 C 255.03 507.54 254.83 513.05 255.19 518.58 C 280.93 518.63 306.66 518.55 332.40 518.68 C 332.47 523.76 332.45 528.84 332.43 533.92 C 301.55 533.93 270.66 533.99 239.78 533.83 C 239.51 530.22 239.46 526.62 239.53 523.00 C 239.60 487.91 239.46 452.81 239.60 417.72 C 239.89 417.34 240.18 416.97 240.46 416.58 C 246.89 408.16 251.30 398.73 254.76 388.76 Z" fill="#e5e5e5" id="svg_89"/><path d="M 284.40 390.53 C 321.10 390.41 357.85 390.63 394.56 390.55 C 393.73 394.04 393.14 397.57 392.68 401.12 L 392.43 398.68 C 356.46 398.50 320.36 398.54 284.38 398.49 C 284.32 395.83 284.26 393.19 284.40 390.53 Z" fill="#cccccc" id="svg_90"/><path d="M 430.94 390.69 C 438.26 390.29 445.66 390.68 453.00 390.54 C 483.69 390.79 514.40 390.47 545.08 390.72 C 545.13 393.32 545.15 395.91 545.13 398.50 C 513.78 398.88 482.36 398.49 451.00 398.58 C 443.67 398.50 436.33 398.76 429.01 398.44 C 429.45 396.25 428.96 392.05 430.94 390.69 Z" fill="#d1d1d1" id="svg_91"/><path d="M 284.41 404.47 C 320.36 404.30 356.40 404.51 392.36 404.37 C 392.13 407.04 392.04 409.71 392.03 412.39 C 359.02 412.55 326.01 412.39 293.00 412.46 C 290.06 412.56 287.20 412.47 284.27 412.17 C 284.29 409.60 284.28 407.03 284.41 404.47 Z" fill="#cccccc" id="svg_92"/><path d="M 437.00 404.48 C 472.96 404.53 508.93 404.45 544.89 404.54 C 545.16 407.25 545.17 409.84 544.92 412.55 C 509.61 412.49 474.31 412.54 439.00 412.52 C 434.59 412.41 430.73 413.13 426.55 411.56 C 426.56 409.54 426.54 407.51 426.60 405.49 C 430.01 403.97 433.32 404.57 437.00 404.48 Z" fill="#d1d1d1" id="svg_93"/><path d="M 284.40 418.36 C 320.31 418.11 356.29 418.51 392.22 418.32 C 392.38 421.01 392.70 423.68 393.09 426.35 C 359.39 426.50 325.70 426.18 292.00 426.34 C 289.43 426.38 286.87 426.26 284.31 426.11 C 284.30 423.53 284.27 420.93 284.40 418.36 Z" fill="#cccccc" id="svg_94"/><path d="M 429.24 418.47 C 431.48 418.29 433.76 418.34 436.00 418.35 C 472.31 418.41 508.61 418.48 544.93 418.41 C 545.10 421.07 545.17 423.71 545.13 426.37 C 542.42 426.45 539.71 426.51 537.00 426.50 C 501.60 426.42 466.15 426.45 430.75 426.30 C 429.88 423.74 429.13 421.22 429.24 418.47 Z" fill="#d1d1d1" id="svg_95"/><path d="M 639.86 417.78 C 645.60 417.58 651.36 417.57 657.10 417.78 C 657.15 423.49 657.23 429.17 657.04 434.88 C 651.33 435.05 645.62 435.04 639.91 434.89 C 639.69 429.21 639.77 423.47 639.86 417.78 Z" fill="#f2f9ff" id="svg_96"/><path d="M 671.76 417.69 C 677.42 417.68 683.12 417.42 688.76 417.90 C 688.74 423.55 688.83 429.20 688.69 434.85 C 682.95 435.05 677.19 435.13 671.46 434.80 C 671.55 429.13 670.99 423.30 671.76 417.69 Z" fill="#f2f9ff" id="svg_97"/><path d="M703.2672350790431,417.9664172525883 C709.7410373189379,417.27808664040566 716.3876278748442,417.7405587704659 722.8959877779413,417.7620691020966 C723.0226992096831,423.9247791142941 723.103333757155,430.0767339606762 722.8383916726042,436.2394439728737 C716.2954741063047,436.3254852993965 709.7525565400053,436.41152662591935 703.209638973706,436.18566814379693 C703.1174852051664,430.11975462393764 702.8986200048853,424.02157560663227 703.2672350790431,417.9664172525883 z" fill="#20364d" id="svg_98" class=""/><path d="M732.3560798122213,416.48924561929886 C739.3080450012014,416.2129806656856 746.3090540363119,416.24751378488725 753.2732801868246,416.52377873850054 C753.4694555713461,423.08507138681597 753.5798042251395,429.6348529953975 753.1751924945638,436.1846346039791 C749.0064655734823,436.29974500131794 744.8377386524008,436.34578916025345 740.6567507697866,436.34578916025345 C737.8244686557576,436.33427812051957 734.9799255801962,436.21916772318076 732.1476434661672,436.0695242066402 C732.1231215431021,433.2723415513057 732.1108605815695,430.4751588959713 732.0863386585044,427.6664652009029 C732.0372948123738,423.9253772873897 731.9514680816458,420.21882249307816 732.3560798122213,416.48924561929886 z" fill="#20364d" id="svg_99" class=""/><path d="M 574.15 421.57 C 574.92 437.94 574.06 454.39 574.60 470.78 C 572.47 472.94 570.39 475.15 568.17 477.23 C 567.51 477.85 566.86 478.50 566.22 479.14 C 562.66 475.45 559.11 471.76 555.52 468.10 C 565.95 454.73 572.55 438.46 574.15 421.57 Z" fill="#ffffff" id="svg_100"/><path d="M 284.39 432.32 C 320.95 432.10 357.63 432.33 394.21 432.21 C 394.82 434.88 395.54 437.53 396.36 440.15 C 365.92 440.40 335.45 440.18 305.00 440.25 C 298.11 440.17 291.18 440.49 284.32 440.01 C 284.30 437.43 284.27 434.89 284.39 432.32 Z" fill="#cccccc" id="svg_101"/><path d="M 432.95 432.35 C 470.20 432.26 507.46 432.28 544.71 432.34 C 545.02 434.56 545.37 436.77 545.77 438.97 C 545.58 439.44 545.37 439.90 545.16 440.36 C 512.44 440.33 479.72 440.35 447.00 440.35 C 443.67 440.31 440.26 440.56 436.95 440.19 C 434.62 438.72 433.71 434.86 432.95 432.35 Z" fill="#d1d1d1" id="svg_102"/><path d="M 284.37 446.20 C 322.37 445.86 360.50 446.40 398.52 446.10 C 399.63 448.83 400.85 451.50 402.19 454.12 C 370.80 454.38 339.39 454.05 308.00 454.16 C 300.11 454.06 292.20 454.39 284.33 453.96 C 284.30 451.36 284.26 448.80 284.37 446.20 Z" fill="#cccccc" id="svg_103"/><path d="M 424.66 446.32 C 429.96 446.04 435.26 446.06 440.57 446.16 C 442.39 448.86 444.29 451.49 446.21 454.11 C 440.91 454.08 435.68 453.95 430.42 454.67 C 428.31 452.02 426.38 449.24 424.66 446.32 Z" fill="#ededed" id="svg_104"/><path d="M 440.57 446.16 C 474.41 446.16 508.23 446.31 542.07 446.22 C 540.40 449.05 538.54 451.76 536.51 454.33 C 506.41 454.17 476.30 454.33 446.21 454.11 C 444.29 451.49 442.39 448.86 440.57 446.16 Z" fill="#d1d1d1" id="svg_105"/><path d="M 640.23 449.40 C 645.78 449.03 651.38 449.30 656.94 449.30 C 657.27 455.02 657.27 460.83 656.94 466.55 C 651.31 466.60 645.67 466.58 640.03 466.57 C 639.82 461.03 639.29 454.82 640.23 449.40 Z" fill="#f2f9ff" id="svg_106"/><path d="M 688.65 449.36 C 688.80 455.08 688.91 460.83 688.58 466.56 C 682.88 466.56 677.21 466.67 671.52 466.47 C 671.36 460.83 671.31 455.16 671.51 449.51 C 677.18 448.96 682.96 449.27 688.65 449.36 Z" fill="#f2f9ff" id="svg_107"/><path d="M703.3814791984018,448.1589182584079 C710.1925955123361,447.65248013791444 717.1018900794443,448.04381868556845 723.9498232383188,447.9632489845809 C724.4898036307749,454.25919561889754 724.4775313491281,460.8544011425967 724.0848183364328,467.15034777691324 L723.5571102256234,467.7603755129623 C716.8196276015696,468.14020410333234 710.0085112876352,467.85245517123377 703.2710286635812,467.806415342098 C703.1237612838205,461.2802695621025 702.8046819610056,454.66204412383547 703.3814791984018,448.1589182584079 z" fill="#20364d" id="svg_108" class=""/><path d="M733.8306481122362,448.0900691987849 C740.2385150137702,447.7216646454704 746.7154074115502,447.97494277587424 753.1347785624586,448.0209933450385 C753.5374272905622,454.6177373778256 753.5719400386852,461.249019337486 753.123274313084,467.8457633702731 C746.6578861646783,467.9724024354749 740.1924980162726,467.9033265817284 733.7386141172411,467.9033265817284 C733.3474696385119,461.41019632956096 733.0023421572802,454.5486615240792 733.8306481122362,448.0900691987849 z" fill="#20364d" id="svg_109" class=""/><path d="M 446.21 454.11 C 476.30 454.33 506.41 454.17 536.51 454.33 C 526.00 467.46 510.84 476.57 494.18 479.17 C 477.29 481.92 459.61 478.10 445.45 468.48 C 451.69 467.96 457.95 468.14 464.21 467.91 C 472.45 468.41 480.74 468.04 489.00 468.15 C 495.88 468.06 502.80 468.37 509.66 467.95 C 509.67 465.37 509.66 462.80 509.63 460.22 C 490.94 460.04 472.24 460.21 453.54 460.15 C 447.55 460.02 441.57 459.95 435.59 460.39 C 433.76 458.57 432.04 456.67 430.42 454.67 C 435.68 453.95 440.91 454.08 446.21 454.11 Z" fill="#ffffff" id="svg_110"/><path d="M 284.42 460.25 C 304.28 459.90 324.31 460.17 344.19 460.12 C 344.26 462.75 344.27 465.38 344.21 468.01 C 327.48 468.19 310.74 468.01 294.00 468.09 C 290.77 468.13 287.55 468.03 284.33 467.86 C 284.30 465.34 284.20 462.77 284.42 460.25 Z" fill="#cccccc" id="svg_111"/><path d="M 435.59 460.39 C 441.57 459.95 447.55 460.02 453.54 460.15 C 456.82 463.12 460.46 465.58 464.21 467.91 C 457.95 468.14 451.69 467.96 445.45 468.48 C 441.92 466.08 438.63 463.39 435.59 460.39 Z" fill="#ededed" id="svg_112"/><path d="M 453.54 460.15 C 472.24 460.21 490.94 460.04 509.63 460.22 C 509.66 462.80 509.67 465.37 509.66 467.95 C 502.80 468.37 495.88 468.06 489.00 468.15 C 480.74 468.04 472.45 468.41 464.21 467.91 C 460.46 465.58 456.82 463.12 453.54 460.15 Z" fill="#d1d1d1" id="svg_113"/><path d="M 43.60 462.95 C 46.44 462.91 49.28 462.94 52.12 463.03 C 52.35 493.20 52.05 523.39 52.26 553.56 C 59.66 553.62 67.07 553.52 74.47 553.60 C 82.12 553.64 89.77 553.64 97.42 553.60 C 104.00 553.55 110.57 553.55 117.15 553.60 C 124.80 553.64 132.46 553.64 140.12 553.59 C 146.67 553.55 153.23 553.55 159.78 553.60 C 167.43 553.64 175.09 553.64 182.74 553.60 C 189.30 553.55 195.86 553.55 202.42 553.60 C 210.07 553.64 217.72 553.64 225.37 553.60 C 249.91 553.59 274.46 553.46 299.00 553.66 C 299.09 556.47 299.07 559.26 298.95 562.06 C 295.63 562.16 292.32 562.19 289.00 562.16 C 207.21 562.12 125.38 562.22 43.60 562.12 C 43.45 529.07 43.45 496.00 43.60 462.95 Z" fill="#cccccc" id="svg_114"/><path d="M 555.52 468.10 C 559.11 471.76 562.66 475.45 566.22 479.14 C 560.80 484.76 555.23 490.25 549.66 495.72 C 546.07 492.03 542.49 488.33 538.90 484.64 C 545.07 479.83 550.68 474.24 555.52 468.10 Z" fill="#0e303f" id="svg_115"/><path d="M 574.60 470.78 C 588.99 484.79 603.10 499.17 617.34 513.35 C 632.44 528.42 647.51 543.52 662.62 558.58 C 660.44 560.94 658.20 563.24 655.91 565.49 L 655.62 565.22 C 628.31 538.27 601.33 510.94 574.08 483.91 C 571.87 481.88 569.98 479.62 568.17 477.23 C 570.39 475.15 572.47 472.94 574.60 470.78 Z" fill="#3f3d56" id="svg_116" class=""/><path d="M 568.17 477.23 C 569.98 479.62 571.87 481.88 574.08 483.91 C 601.33 510.94 628.31 538.27 655.62 565.22 C 649.84 572.36 642.63 578.27 636.47 585.10 C 610.38 559.35 584.57 533.28 558.59 507.41 C 555.00 503.90 551.95 500.40 548.07 497.33 C 548.60 496.79 549.13 496.26 549.66 495.72 C 555.23 490.25 560.80 484.76 566.22 479.14 C 566.86 478.50 567.51 477.85 568.17 477.23 Z" fill="#2c5871" id="svg_117" class=""/><path d="M117.24,484.28 C124.81,484.14 132.4,484.25 139.97,484.24 C140.15,488.11 140.16,491.99 140.12,495.88 C132.47,495.83 124.82,495.86 117.17,495.85 C117.18,492 117.08,488.13 117.24,484.28 z" fill="#ff6347" id="svg_118" class=""/><path d="M 74.52 493.25 C 82.11 493.00 89.73 493.20 97.33 493.14 C 97.54 499.90 97.37 506.66 97.42 513.42 C 89.78 513.51 82.14 513.42 74.49 513.46 C 74.53 506.72 74.40 499.98 74.52 493.25 Z" fill="#ff6347" id="svg_119" class=""/><path d="M 117.17 495.85 C 124.82 495.86 132.47 495.83 140.12 495.88 C 140.11 515.11 140.11 534.35 140.12 553.59 C 132.46 553.64 124.80 553.64 117.15 553.60 C 117.18 534.35 117.14 515.10 117.17 495.85 Z" fill="#3f3d56" id="svg_120" class=""/><path d="M 548.07 497.33 C 551.95 500.40 555.00 503.90 558.59 507.41 C 584.57 533.28 610.38 559.35 636.47 585.10 L 636.78 585.41 C 633.98 587.33 631.69 589.54 629.52 592.14 C 612.59 575.12 595.55 558.20 578.60 541.20 C 571.08 533.71 563.58 526.20 556.07 518.69 L 555.98 518.60 C 551.12 513.74 546.26 508.90 541.41 504.04 C 543.65 501.82 545.85 499.56 548.07 497.33 Z" fill="#3f3d56" id="svg_121" class=""/><path d="M 159.88 503.23 C 167.49 503.20 175.10 503.17 182.70 503.25 C 182.76 510.28 182.70 517.32 182.72 524.36 C 175.08 524.41 167.43 524.40 159.79 524.37 C 159.83 517.32 159.67 510.27 159.88 503.23 Z" fill="#ff6347" id="svg_122"/><path d="M 74.49 513.46 C 82.14 513.42 89.78 513.51 97.42 513.42 C 97.43 526.82 97.43 540.21 97.42 553.60 C 89.77 553.64 82.12 553.64 74.47 553.60 C 74.52 540.22 74.46 526.84 74.49 513.46 Z" fill="#3f3d56" id="svg_123"/><path d="M 555.98 518.60 L 556.07 518.69 C 563.58 526.20 571.08 533.71 578.60 541.20 C 573.35 544.07 568.22 547.15 562.88 549.87 C 523.53 570.31 479.34 581.26 435.00 581.60 C 400.02 582.07 365.12 575.86 332.31 563.75 C 332.35 553.81 332.42 543.86 332.43 533.92 C 332.45 528.84 332.47 523.76 332.40 518.68 C 403.29 518.56 474.12 518.77 545.00 518.74 C 548.66 518.76 552.32 518.77 555.98 518.60 Z" fill="#a6dae9" id="svg_124" class=""/><path d="M 202.45 520.17 C 210.04 519.78 217.70 520.05 225.30 520.03 C 225.44 525.63 225.35 531.23 225.37 536.83 C 217.72 536.83 210.08 536.82 202.43 536.84 C 202.47 531.28 202.34 525.72 202.45 520.17 Z" fill="#ff6347" id="svg_125" class=""/><path d="M 159.79 524.37 C 167.43 524.40 175.08 524.41 182.72 524.36 C 182.73 534.10 182.70 543.85 182.74 553.60 C 175.09 553.64 167.43 553.64 159.78 553.60 C 159.78 543.86 159.78 534.11 159.79 524.37 Z" fill="#3f3d56" id="svg_126"/><path d="M 202.43 536.84 C 210.08 536.82 217.72 536.83 225.37 536.83 C 225.37 542.42 225.37 548.01 225.37 553.60 C 217.72 553.64 210.07 553.64 202.42 553.60 C 202.45 548.01 202.43 542.42 202.43 536.84 Z" fill="#3f3d56" id="svg_127" class=""/><path d="M 662.62 558.58 C 668.02 563.95 673.41 569.33 678.78 574.74 C 676.52 576.98 674.26 579.23 672.03 581.50 C 666.45 576.39 661.20 570.91 655.91 565.49 C 658.20 563.24 660.44 560.94 662.62 558.58 Z" fill="#0e303f" id="svg_128" class=""/><path d="M 655.62 565.22 L 655.91 565.49 C 661.20 570.91 666.45 576.39 672.03 581.50 C 665.51 588.08 658.96 594.64 652.37 601.15 C 647.20 595.88 641.90 590.74 636.78 585.41 L 636.47 585.10 C 642.63 578.27 649.84 572.36 655.62 565.22 Z" fill="#164866" id="svg_129"/><path d="M 636.78 585.41 C 641.90 590.74 647.20 595.88 652.37 601.15 C 650.03 603.44 647.73 605.76 645.40 608.05 C 640.12 602.74 634.79 597.47 629.52 592.14 C 631.69 589.54 633.98 587.33 636.78 585.41 Z" fill="#0e303f" id="svg_130" class=""/></g></svg>