<?xml version="1.0" encoding="UTF-8"?>
<svg xmlns="http://www.w3.org/2000/svg" xmlns:xlink="http://www.w3.org/1999/xlink" width="201pt" height="151pt" viewBox="0 0 201 151" version="1.1">
<g id="surface1">
<rect x="0" y="0" width="201" height="151" style="fill:rgb(94.901961%,94.901961%,94.901961%);fill-opacity:1;stroke:none;"/>
<path style=" stroke:none;fill-rule:nonzero;fill:rgb(88.235294%,93.72549%,98.039216%);fill-opacity:1;" d="M 105.019531 3.179688 C 115.183594 3.082031 125.355469 5.257812 134.585938 9.53125 C 145.589844 14.605469 155.21875 22.613281 162.214844 32.527344 C 158.046875 32.542969 153.878906 32.53125 149.710938 32.53125 C 148.601562 32.542969 147.429688 32.4375 146.394531 32.902344 C 144.6875 33.613281 143.550781 35.34375 143.589844 37.195312 C 143.585938 40.335938 143.566406 43.476562 143.605469 46.613281 C 143.011719 46.921875 142.324219 47.199219 141.820312 47.648438 C 141.410156 48.3125 141.792969 49.210938 142.628906 49.171875 C 143.253906 49.03125 143.832031 48.644531 144.414062 48.375 C 145.296875 49.613281 146.71875 50.359375 148.242188 50.328125 C 153.046875 50.320312 157.855469 50.328125 162.660156 50.324219 C 164.914062 50.375 166.9375 48.609375 167.214844 46.371094 C 167.332031 45.019531 167.214844 43.644531 167.277344 42.289062 C 167.519531 42.285156 167.765625 42.28125 168.007812 42.28125 C 170.480469 47.386719 172.339844 52.777344 173.503906 58.328125 C 165.570312 58.328125 157.640625 58.324219 149.710938 58.328125 C 148.765625 58.332031 147.835938 58.289062 146.910156 58.375 C 146.414062 58.558594 145.949219 58.851562 145.476562 59.09375 C 144.957031 59.371094 144.4375 59.644531 143.917969 59.925781 C 144.4375 60.195312 144.957031 60.464844 145.476562 60.738281 C 145.945312 60.988281 146.414062 61.253906 146.894531 61.476562 C 147.753906 61.53125 148.597656 61.507812 149.46875 61.507812 C 157.679688 61.507812 165.890625 61.507812 174.105469 61.507812 C 174.445312 63.703125 174.703125 65.90625 174.851562 68.121094 C 168.035156 68.128906 161.152344 68.113281 154.347656 68.128906 C 153.425781 68.105469 152.742188 68.832031 152.753906 69.742188 C 152.738281 74.296875 152.765625 78.871094 152.742188 83.429688 C 152.78125 94.265625 152.734375 105.167969 152.761719 116.007812 C 152.742188 116.773438 153.324219 117.480469 154.097656 117.546875 C 155.605469 117.632812 157.128906 117.546875 158.640625 117.585938 C 156.265625 120.53125 153.546875 123.078125 150.773438 125.632812 C 147.292969 122.164062 143.847656 118.644531 140.332031 115.214844 C 140.203125 111.203125 140.410156 107.179688 140.222656 103.171875 C 140.386719 101.578125 140.371094 100.097656 140.21875 98.507812 C 140.242188 98.140625 140.273438 97.777344 140.289062 97.410156 C 140.339844 80.914062 140.292969 64.457031 140.332031 47.96875 C 140.347656 37.476562 140.308594 26.980469 140.355469 16.488281 C 126.539062 16.449219 112.730469 16.480469 98.914062 16.460938 C 88.574219 16.429688 78.234375 16.457031 67.894531 16.445312 C 66.855469 16.457031 65.820312 16.472656 64.785156 16.378906 C 76.386719 7.898438 90.65625 3.226562 105.019531 3.179688 Z M 105.019531 3.179688 "/>
<path style=" stroke:none;fill-rule:nonzero;fill:rgb(100%,100%,100%);fill-opacity:1;" d="M 64.785156 16.378906 C 65.820312 16.472656 66.855469 16.457031 67.894531 16.445312 C 78.234375 16.457031 88.574219 16.429688 98.914062 16.460938 C 112.730469 16.480469 126.539062 16.449219 140.355469 16.488281 C 140.308594 26.980469 140.347656 37.476562 140.332031 47.96875 C 140.292969 64.457031 140.339844 80.914062 140.289062 97.410156 C 140.273438 97.777344 140.242188 98.140625 140.21875 98.507812 C 139.414062 90.03125 133.398438 82.535156 125.382812 79.777344 C 125.402344 75.457031 125.398438 71.132812 125.386719 66.8125 C 123.144531 66.8125 120.902344 66.808594 118.660156 66.816406 C 118.664062 70.726562 118.628906 74.636719 118.640625 78.546875 C 118.300781 78.539062 117.960938 78.539062 117.625 78.546875 C 117.605469 75.976562 117.625 73.398438 117.613281 70.824219 C 115.363281 70.8125 113.113281 70.832031 110.863281 70.8125 C 110.847656 73.785156 110.867188 76.753906 110.859375 79.722656 C 105.890625 81.40625 101.550781 84.933594 98.886719 89.453125 C 98.742188 89.222656 98.601562 88.992188 98.457031 88.765625 C 89.898438 88.785156 81.335938 88.789062 72.78125 88.753906 C 71.640625 88.773438 70.558594 88.671875 69.464844 88.832031 C 69.441406 89.460938 69.453125 90.082031 69.453125 90.710938 C 78.136719 90.71875 86.8125 90.75 95.492188 90.738281 C 96.367188 90.71875 97.230469 90.699219 98.09375 90.875 C 97.878906 91.316406 97.667969 91.753906 97.476562 92.207031 C 89.410156 92.125 81.335938 92.1875 73.269531 92.167969 C 71.996094 92.199219 70.703125 92.085938 69.441406 92.238281 C 69.425781 92.867188 69.4375 93.496094 69.453125 94.125 C 78.554688 94.152344 87.660156 94.105469 96.765625 94.144531 C 96.621094 94.621094 96.484375 95.097656 96.363281 95.582031 C 87.398438 95.601562 78.421875 95.546875 69.457031 95.574219 C 69.425781 96.226562 69.4375 96.871094 69.453125 97.523438 C 78.242188 97.535156 87.058594 97.527344 95.84375 97.570312 L 95.902344 98.167969 C 95.875 98.433594 95.851562 98.699219 95.824219 98.960938 C 87.042969 98.996094 78.242188 98.945312 69.460938 98.988281 C 69.429688 99.613281 69.433594 100.242188 69.425781 100.871094 C 70.140625 100.945312 70.839844 100.96875 71.558594 100.941406 C 79.621094 100.925781 87.683594 100.964844 95.746094 100.925781 C 95.746094 101.40625 95.765625 101.890625 95.792969 102.375 C 87.015625 102.421875 78.230469 102.324219 69.457031 102.386719 C 69.425781 103.015625 69.433594 103.652344 69.4375 104.28125 C 70.0625 104.320312 70.6875 104.347656 71.316406 104.339844 C 79.546875 104.300781 87.773438 104.378906 96.003906 104.339844 C 96.078125 104.820312 96.175781 105.300781 96.277344 105.777344 C 87.34375 105.804688 78.386719 105.75 69.457031 105.804688 C 69.425781 106.433594 69.433594 107.054688 69.4375 107.683594 C 71.113281 107.800781 72.808594 107.722656 74.488281 107.742188 C 81.925781 107.726562 89.367188 107.78125 96.800781 107.71875 C 96.960938 108.210938 97.140625 108.695312 97.328125 109.175781 C 88.042969 109.25 78.730469 109.117188 69.453125 109.199219 C 69.425781 109.835938 69.433594 110.460938 69.441406 111.097656 C 71.363281 111.203125 73.296875 111.125 75.222656 111.148438 C 82.890625 111.121094 90.558594 111.203125 98.226562 111.136719 C 100.078125 114.703125 102.882812 117.75 106.296875 119.863281 C 109.988281 122.175781 114.34375 123.339844 118.695312 123.207031 C 123.363281 123.085938 127.917969 121.460938 131.613281 118.605469 C 132.492188 119.511719 133.367188 120.414062 134.242188 121.320312 C 134.113281 121.449219 133.984375 121.582031 133.855469 121.710938 C 133.3125 122.257812 132.773438 122.8125 132.226562 123.355469 C 133.414062 124.542969 134.597656 125.730469 135.785156 126.917969 C 134.890625 126.960938 134 126.957031 133.105469 126.953125 C 115.792969 126.960938 98.496094 126.910156 81.179688 126.9375 C 74.894531 126.90625 68.609375 126.925781 62.324219 126.914062 C 62.238281 125.558594 62.285156 124.210938 62.277344 122.855469 C 62.273438 114.617188 62.28125 106.378906 62.296875 98.136719 C 62.3125 97.136719 62.25 96.140625 62.21875 95.140625 C 62.269531 94.542969 62.296875 93.941406 62.292969 93.339844 C 62.273438 92.0625 62.308594 90.777344 62.300781 89.496094 C 62.234375 87.371094 62.441406 85.195312 62.171875 83.082031 C 62.226562 82.390625 62.300781 81.703125 62.300781 81.007812 C 62.277344 75.222656 62.304688 69.433594 62.316406 63.648438 C 62.328125 62.574219 62.324219 61.492188 62.316406 60.414062 C 62.316406 59.875 62.316406 59.335938 62.316406 58.800781 C 62.328125 57.71875 62.328125 56.636719 62.3125 55.550781 C 62.308594 55.039062 62.308594 54.523438 62.3125 54.011719 C 62.328125 52.917969 62.328125 51.828125 62.316406 50.734375 C 62.308594 50.214844 62.308594 49.691406 62.316406 49.175781 C 62.328125 48.09375 62.324219 47.015625 62.316406 45.9375 C 62.316406 45.40625 62.316406 44.875 62.316406 44.34375 C 62.324219 43.257812 62.328125 42.171875 62.316406 41.085938 C 62.304688 38.550781 62.300781 36.011719 62.335938 33.476562 C 62.339844 28.402344 62.347656 23.328125 62.328125 18.253906 C 62.324219 17.65625 62.328125 17.058594 62.335938 16.464844 C 63.148438 16.429688 63.972656 16.359375 64.785156 16.378906 Z M 64.785156 16.378906 "/>
<path style=" stroke:none;fill-rule:nonzero;fill:rgb(88.235294%,93.72549%,98.039216%);fill-opacity:1;" d="M 62.328125 18.253906 C 62.347656 23.328125 62.339844 28.402344 62.335938 33.476562 C 61.078125 33.46875 59.824219 33.472656 58.570312 33.472656 C 55.105469 33.492188 51.644531 33.421875 48.179688 33.46875 C 52.054688 27.734375 56.902344 22.535156 62.328125 18.253906 Z M 62.328125 18.253906 "/>
<path style=" stroke:none;fill-rule:nonzero;fill:rgb(24.705882%,23.921569%,33.72549%);fill-opacity:1;" d="M 125.820312 28.519531 C 128.40625 28.519531 130.988281 28.511719 133.574219 28.519531 C 133.570312 31.109375 133.574219 33.695312 133.570312 36.285156 C 132.757812 36.292969 131.945312 36.292969 131.132812 36.285156 C 131.128906 35.035156 131.132812 33.78125 131.128906 32.53125 C 125.136719 36.636719 119.148438 40.753906 113.152344 44.855469 C 112.585938 45.269531 111.941406 45.5 111.675781 46.191406 C 111.808594 44.835938 111.460938 43.921875 110.503906 42.980469 C 116.335938 38.972656 122.175781 34.980469 128.007812 30.972656 C 127.28125 30.964844 126.550781 30.964844 125.820312 30.964844 C 125.8125 30.148438 125.8125 29.332031 125.820312 28.519531 Z M 125.820312 28.519531 "/>
<path style=" stroke:none;fill-rule:nonzero;fill:rgb(24.705882%,23.921569%,33.72549%);fill-opacity:1;" d="M 149.710938 32.53125 C 153.878906 32.53125 158.046875 32.542969 162.214844 32.527344 C 164.035156 32.4375 165.78125 33.261719 166.671875 34.886719 C 167.296875 35.933594 167.265625 37.007812 167.28125 38.183594 C 167.269531 39.105469 167.296875 40.003906 167.382812 40.925781 C 167.347656 41.375 167.304688 41.832031 167.277344 42.289062 C 167.214844 43.644531 167.332031 45.019531 167.214844 46.371094 C 166.9375 48.609375 164.914062 50.375 162.660156 50.324219 C 157.855469 50.328125 153.046875 50.320312 148.242188 50.328125 C 146.71875 50.359375 145.296875 49.613281 144.414062 48.375 C 144.09375 47.816406 143.820312 47.226562 143.605469 46.613281 C 143.566406 43.476562 143.585938 40.335938 143.589844 37.195312 C 143.550781 35.34375 144.6875 33.613281 146.394531 32.902344 C 147.429688 32.4375 148.601562 32.542969 149.710938 32.53125 Z M 149.710938 32.53125 "/>
<path style=" stroke:none;fill-rule:nonzero;fill:rgb(24.705882%,23.921569%,33.72549%);fill-opacity:1;" d="M 176.8125 32.539062 C 181.617188 32.53125 186.433594 32.53125 191.234375 32.539062 C 193.015625 32.535156 194.679688 33.585938 195.414062 35.214844 C 195.953125 36.34375 195.820312 37.453125 195.832031 38.667969 C 195.800781 39.890625 195.953125 41.089844 195.847656 42.308594 C 195.46875 44.484375 196.25 46.570312 195.046875 48.328125 C 194.167969 49.570312 192.773438 50.347656 191.238281 50.324219 C 186.84375 50.328125 182.4375 50.320312 178.042969 50.328125 C 176.992188 50.316406 176.027344 50.417969 175.039062 50.003906 C 173.417969 49.363281 172.25 47.765625 172.175781 46.015625 C 172.128906 44.773438 172.183594 43.527344 172.15625 42.28125 C 172.144531 41.824219 172.121094 41.363281 172.09375 40.90625 C 172.140625 39.996094 172.203125 39.089844 172.167969 38.175781 C 172.140625 37.121094 172.113281 36.144531 172.597656 35.171875 C 173.359375 33.550781 175.023438 32.515625 176.8125 32.539062 Z M 176.8125 32.539062 "/>
<path style=" stroke:none;fill-rule:nonzero;fill:rgb(100%,38.823529%,27.843137%);fill-opacity:1;" d="M 95.386719 33.164062 C 96.863281 33.730469 97.660156 35.1875 97.519531 36.746094 C 97.253906 37.925781 96.78125 38.589844 95.785156 39.25 C 94.695312 39.71875 93.761719 39.730469 92.667969 39.277344 C 91.648438 38.648438 91.164062 37.96875 90.875 36.804688 C 90.851562 36.054688 90.890625 35.34375 91.269531 34.675781 C 92.050781 33.222656 93.84375 32.570312 95.386719 33.164062 Z M 95.386719 33.164062 "/>
<path style=" stroke:none;fill-rule:nonzero;fill:rgb(100%,100%,100%);fill-opacity:1;" d="M 2.511719 33.558594 C 3.636719 33.441406 4.734375 33.492188 5.863281 33.492188 C 18.804688 33.492188 31.75 33.5 44.695312 33.492188 C 45.855469 33.503906 47.019531 33.507812 48.179688 33.46875 C 51.644531 33.421875 55.105469 33.492188 58.570312 33.472656 C 58.511719 36.007812 58.535156 38.546875 58.550781 41.082031 C 48.480469 41.082031 38.402344 41.082031 28.332031 41.082031 C 27.941406 41.085938 27.550781 41.101562 27.15625 41.113281 C 27.144531 42.183594 27.144531 43.25 27.15625 44.320312 C 37.617188 44.386719 48.089844 44.328125 58.550781 44.351562 C 58.550781 44.875 58.546875 45.402344 58.542969 45.929688 C 49.042969 45.925781 39.539062 45.929688 30.039062 45.929688 C 29.078125 45.917969 28.117188 45.917969 27.15625 45.957031 C 27.144531 47.023438 27.144531 48.085938 27.15625 49.148438 C 37.625 49.171875 48.097656 49.140625 58.566406 49.164062 C 58.554688 49.65625 58.546875 50.144531 58.539062 50.636719 C 57.097656 50.757812 55.664062 50.6875 54.21875 50.699219 C 45.21875 50.707031 36.167969 50.6875 27.175781 50.707031 L 27.164062 50.847656 C 27.125 51.886719 27.148438 52.945312 27.167969 53.988281 C 37.632812 54 48.097656 53.976562 58.5625 54 C 58.558594 54.523438 58.554688 55.042969 58.554688 55.5625 C 48.101562 55.597656 37.617188 55.542969 27.164062 55.59375 C 27.125 56.652344 27.152344 57.71875 27.15625 58.78125 C 37.582031 58.839844 48.019531 58.800781 58.445312 58.800781 C 58.492188 59.335938 58.535156 59.871094 58.574219 60.40625 C 48.105469 60.433594 37.625 60.375 27.15625 60.4375 C 27.144531 61.5 27.144531 62.5625 27.15625 63.625 C 37.617188 63.6875 48.089844 63.628906 58.554688 63.652344 C 58.414062 67.765625 58.648438 71.898438 58.433594 76 C 54.871094 71.492188 49.476562 68.550781 43.753906 68.0625 C 43.730469 72.003906 43.738281 75.945312 43.75 79.882812 C 45.800781 80.34375 47.660156 81.429688 49.007812 83.050781 C 50.265625 84.53125 50.984375 86.355469 51.21875 88.273438 C 53.628906 88.554688 56.042969 88.804688 58.453125 89.074219 C 58.53125 90.308594 58.542969 91.523438 58.515625 92.761719 C 58.214844 92.792969 57.917969 92.824219 57.621094 92.855469 C 55.347656 92.605469 53.078125 92.289062 50.800781 92.121094 C 50.3125 93.433594 49.609375 94.507812 48.800781 95.636719 C 51.089844 98.820312 53.34375 102.035156 55.660156 105.199219 C 56.699219 104.296875 57.65625 103.300781 58.515625 102.230469 C 58.484375 110.816406 58.515625 119.40625 58.5 127.996094 C 58.484375 128.882812 58.496094 129.761719 58.5625 130.644531 C 66.101562 130.683594 73.648438 130.671875 81.1875 130.667969 C 81.1875 133.101562 81.167969 135.535156 81.160156 137.96875 C 81.035156 140.332031 81.222656 142.703125 81.054688 145.0625 C 78.542969 145.136719 76.027344 145.058594 73.511719 145.09375 C 71.632812 145.160156 69.777344 144.828125 67.894531 144.910156 C 47.628906 144.921875 27.351562 144.914062 7.082031 144.914062 C 5.542969 144.898438 4.015625 144.976562 2.476562 144.867188 C 2.441406 144.058594 2.425781 143.246094 2.4375 142.433594 C 2.457031 109.308594 2.464844 76.199219 2.460938 43.074219 C 2.515625 39.902344 2.414062 36.726562 2.511719 33.558594 Z M 2.511719 33.558594 "/>
<path style=" stroke:none;fill-rule:nonzero;fill:rgb(89.803922%,89.803922%,89.803922%);fill-opacity:1;" d="M 58.570312 33.472656 C 59.824219 33.472656 61.078125 33.46875 62.335938 33.476562 C 62.300781 36.011719 62.304688 38.550781 62.316406 41.085938 C 61.0625 41.082031 59.808594 41.085938 58.550781 41.082031 C 58.535156 38.546875 58.511719 36.007812 58.570312 33.472656 Z M 58.570312 33.472656 "/>
<path style=" stroke:none;fill-rule:nonzero;fill:rgb(88.235294%,93.72549%,98.039216%);fill-opacity:1;" d="M 148.972656 34.425781 C 150.921875 34.402344 152.875 34.425781 154.824219 34.417969 C 154.765625 39.089844 154.777344 43.78125 154.820312 48.453125 C 152.871094 48.445312 150.921875 48.472656 148.972656 48.445312 C 147.039062 48.414062 145.46875 46.714844 145.5 44.789062 C 145.5 42.503906 145.488281 40.214844 145.507812 37.929688 C 145.539062 36.0625 147.105469 34.457031 148.972656 34.425781 Z M 148.972656 34.425781 "/>
<path style=" stroke:none;fill-rule:nonzero;fill:rgb(80.784314%,88.627451%,94.901961%);fill-opacity:1;" d="M 154.449219 34.417969 C 156.734375 34.417969 159.019531 34.414062 161.304688 34.417969 C 162.667969 34.390625 163.945312 35.164062 164.570312 36.375 C 165.074219 37.292969 164.980469 38.390625 164.980469 39.402344 C 164.910156 41.285156 165.015625 43.160156 164.945312 45.039062 C 164.921875 46.828125 163.328125 48.402344 161.554688 48.445312 C 159.1875 48.472656 156.8125 48.445312 154.441406 48.453125 C 154.402344 43.78125 154.390625 39.089844 154.449219 34.417969 Z M 154.449219 34.417969 "/>
<path style=" stroke:none;fill-rule:nonzero;fill:rgb(88.235294%,93.72549%,98.039216%);fill-opacity:1;" d="M 177.550781 34.425781 C 179.5 34.402344 181.449219 34.425781 183.398438 34.417969 C 183.34375 39.089844 183.351562 43.78125 183.394531 48.453125 C 181.445312 48.445312 179.496094 48.472656 177.546875 48.449219 C 175.609375 48.414062 174.042969 46.71875 174.066406 44.789062 C 174.070312 42.503906 174.058594 40.214844 174.074219 37.929688 C 174.117188 36.0625 175.675781 34.457031 177.550781 34.425781 Z M 177.550781 34.425781 "/>
<path style=" stroke:none;fill-rule:nonzero;fill:rgb(80.784314%,88.627451%,94.901961%);fill-opacity:1;" d="M 183.398438 34.417969 C 185.683594 34.417969 187.96875 34.414062 190.257812 34.417969 C 191.617188 34.390625 192.894531 35.167969 193.515625 36.375 C 194.074219 37.378906 193.921875 38.773438 193.925781 39.890625 C 193.847656 41.609375 193.996094 43.324219 193.914062 45.039062 C 193.839844 46.835938 192.304688 48.390625 190.503906 48.445312 C 188.136719 48.472656 185.761719 48.445312 183.394531 48.453125 C 183.351562 43.78125 183.34375 39.089844 183.398438 34.417969 Z M 183.398438 34.417969 "/>
<path style=" stroke:none;fill-rule:nonzero;fill:rgb(24.705882%,23.921569%,33.72549%);fill-opacity:1;" d="M 90.875 36.804688 C 91.164062 37.96875 91.648438 38.648438 92.667969 39.277344 C 86.328125 43.945312 80 48.628906 73.667969 53.304688 C 73.058594 52.496094 72.457031 51.675781 71.855469 50.855469 C 78.191406 46.160156 84.539062 41.488281 90.875 36.804688 Z M 90.875 36.804688 "/>
<path style=" stroke:none;fill-rule:nonzero;fill:rgb(24.705882%,23.921569%,33.72549%);fill-opacity:1;" d="M 97.519531 36.746094 C 100.488281 38.777344 103.460938 40.8125 106.429688 42.84375 C 105.515625 43.613281 105.117188 44.382812 105.015625 45.578125 C 101.945312 43.460938 98.859375 41.359375 95.785156 39.25 C 96.78125 38.589844 97.253906 37.925781 97.519531 36.746094 Z M 97.519531 36.746094 "/>
<path style=" stroke:none;fill-rule:nonzero;fill:rgb(12.54902%,21.176471%,30.196078%);fill-opacity:1;" d="M 172.167969 38.175781 C 172.203125 39.089844 172.140625 39.996094 172.09375 40.90625 C 171.964844 40.71875 171.832031 40.535156 171.695312 40.355469 C 170.675781 39.089844 168.796875 39.089844 167.78125 40.355469 C 167.644531 40.542969 167.515625 40.730469 167.382812 40.925781 C 167.296875 40.003906 167.269531 39.105469 167.28125 38.183594 C 168.933594 37.257812 170.515625 37.242188 172.167969 38.175781 Z M 172.167969 38.175781 "/>
<path style=" stroke:none;fill-rule:nonzero;fill:rgb(96.862745%,96.862745%,96.862745%);fill-opacity:1;" d="M 171.695312 40.355469 C 170.390625 40.359375 169.085938 40.359375 167.78125 40.355469 C 168.796875 39.089844 170.675781 39.089844 171.695312 40.355469 Z M 171.695312 40.355469 "/>
<path style=" stroke:none;fill-rule:nonzero;fill:rgb(31.372549%,40%,49.411765%);fill-opacity:1;" d="M 167.78125 40.355469 C 169.085938 40.359375 170.390625 40.359375 171.695312 40.355469 C 171.832031 40.535156 171.964844 40.71875 172.09375 40.90625 C 172.121094 41.363281 172.144531 41.824219 172.15625 42.28125 C 170.773438 42.28125 169.390625 42.277344 168.007812 42.28125 C 167.765625 42.28125 167.519531 42.285156 167.277344 42.289062 C 167.304688 41.832031 167.347656 41.375 167.382812 40.925781 C 167.515625 40.730469 167.644531 40.542969 167.78125 40.355469 Z M 167.78125 40.355469 "/>
<path style=" stroke:none;fill-rule:nonzero;fill:rgb(100%,38.823529%,27.843137%);fill-opacity:1;" d="M 20.484375 40.953125 C 20.492188 41.917969 20.492188 42.882812 20.488281 43.84375 C 17.199219 43.847656 13.914062 43.847656 10.628906 43.84375 C 10.625 42.882812 10.625 41.921875 10.621094 40.964844 C 13.910156 40.945312 17.199219 40.960938 20.484375 40.953125 Z M 20.484375 40.953125 "/>
<path style=" stroke:none;fill-rule:nonzero;fill:rgb(80%,80%,80%);fill-opacity:1;" d="M 27.15625 41.113281 C 27.550781 41.101562 27.941406 41.085938 28.332031 41.082031 C 38.402344 41.082031 48.480469 41.082031 58.550781 41.082031 C 58.542969 42.167969 58.539062 43.261719 58.550781 44.351562 C 48.089844 44.328125 37.617188 44.386719 27.15625 44.320312 C 27.144531 43.25 27.144531 42.183594 27.15625 41.113281 Z M 27.15625 41.113281 "/>
<path style=" stroke:none;fill-rule:nonzero;fill:rgb(71.764706%,71.764706%,71.764706%);fill-opacity:1;" d="M 58.550781 41.082031 C 59.808594 41.085938 61.0625 41.082031 62.316406 41.085938 C 62.328125 42.171875 62.324219 43.257812 62.316406 44.34375 C 61.0625 44.351562 59.804688 44.347656 58.550781 44.351562 C 58.539062 43.261719 58.542969 42.167969 58.550781 41.082031 Z M 58.550781 41.082031 "/>
<path style=" stroke:none;fill-rule:nonzero;fill:rgb(100%,38.823529%,27.843137%);fill-opacity:1;" d="M 110.503906 42.980469 C 111.460938 43.921875 111.808594 44.835938 111.675781 46.191406 C 111.304688 47.835938 109.894531 49.019531 108.191406 48.917969 C 106.394531 48.828125 105.078125 47.351562 105.015625 45.578125 C 105.117188 44.382812 105.515625 43.613281 106.429688 42.84375 C 107.796875 42.007812 109.195312 42.0625 110.503906 42.980469 Z M 110.503906 42.980469 "/>
<path style=" stroke:none;fill-rule:nonzero;fill:rgb(31.372549%,40%,49.411765%);fill-opacity:1;" d="M 195.847656 42.308594 C 195.839844 43.722656 195.902344 45.132812 195.804688 46.546875 C 196.414062 46.90625 197.121094 47.183594 197.65625 47.644531 C 198.097656 48.304688 197.671875 49.21875 196.847656 49.175781 C 196.214844 49.050781 195.625 48.617188 195.046875 48.328125 C 196.25 46.570312 195.46875 44.484375 195.847656 42.308594 Z M 195.847656 42.308594 "/>
<path style=" stroke:none;fill-rule:nonzero;fill:rgb(89.803922%,89.803922%,89.803922%);fill-opacity:1;" d="M 58.550781 44.351562 C 59.804688 44.347656 61.0625 44.351562 62.316406 44.34375 C 62.316406 44.875 62.316406 45.40625 62.316406 45.9375 C 61.058594 45.917969 59.800781 45.925781 58.542969 45.929688 C 58.546875 45.402344 58.550781 44.875 58.550781 44.351562 Z M 58.550781 44.351562 "/>
<path style=" stroke:none;fill-rule:nonzero;fill:rgb(80%,80%,80%);fill-opacity:1;" d="M 27.15625 45.957031 C 28.117188 45.917969 29.078125 45.917969 30.039062 45.929688 C 39.539062 45.929688 49.042969 45.925781 58.542969 45.929688 C 58.539062 47.007812 58.539062 48.085938 58.566406 49.164062 C 48.097656 49.140625 37.625 49.171875 27.15625 49.148438 C 27.144531 48.085938 27.144531 47.023438 27.15625 45.957031 Z M 27.15625 45.957031 "/>
<path style=" stroke:none;fill-rule:nonzero;fill:rgb(71.764706%,71.764706%,71.764706%);fill-opacity:1;" d="M 58.542969 45.929688 C 59.800781 45.925781 61.058594 45.917969 62.316406 45.9375 C 62.324219 47.015625 62.328125 48.09375 62.316406 49.175781 C 61.0625 49.15625 59.816406 49.15625 58.566406 49.164062 C 58.539062 48.085938 58.539062 47.007812 58.542969 45.929688 Z M 58.542969 45.929688 "/>
<path style=" stroke:none;fill-rule:nonzero;fill:rgb(31.372549%,40%,49.411765%);fill-opacity:1;" d="M 143.605469 46.613281 C 143.820312 47.226562 144.09375 47.816406 144.414062 48.375 C 143.832031 48.644531 143.253906 49.03125 142.628906 49.171875 C 141.792969 49.210938 141.410156 48.3125 141.820312 47.648438 C 142.324219 47.199219 143.011719 46.921875 143.605469 46.613281 Z M 143.605469 46.613281 "/>
<path style=" stroke:none;fill-rule:nonzero;fill:rgb(29.803922%,55.686275%,70.588235%);fill-opacity:1;" d="M 10.628906 47.503906 C 13.917969 47.503906 17.199219 47.503906 20.488281 47.503906 C 20.492188 48.464844 20.492188 49.421875 20.488281 50.382812 C 17.199219 50.386719 13.917969 50.382812 10.628906 50.382812 C 10.621094 49.421875 10.621094 48.464844 10.628906 47.503906 Z M 10.628906 47.503906 "/>
<path style=" stroke:none;fill-rule:nonzero;fill:rgb(89.803922%,89.803922%,89.803922%);fill-opacity:1;" d="M 58.566406 49.164062 C 59.816406 49.15625 61.0625 49.15625 62.316406 49.175781 C 62.308594 49.691406 62.308594 50.214844 62.316406 50.734375 C 61.058594 50.757812 59.800781 50.730469 58.546875 50.785156 C 50.023438 50.832031 41.492188 50.792969 32.972656 50.804688 C 31.035156 50.820312 29.097656 50.769531 27.164062 50.847656 L 27.175781 50.707031 C 36.167969 50.6875 45.21875 50.707031 54.21875 50.699219 C 55.664062 50.6875 57.097656 50.757812 58.539062 50.636719 C 58.546875 50.144531 58.554688 49.65625 58.566406 49.164062 Z M 58.566406 49.164062 "/>
<path style=" stroke:none;fill-rule:nonzero;fill:rgb(71.764706%,71.764706%,71.764706%);fill-opacity:1;" d="M 62.316406 50.734375 C 62.328125 51.828125 62.328125 52.917969 62.3125 54.011719 C 61.0625 53.980469 59.8125 53.984375 58.5625 54 C 58.542969 52.929688 58.535156 51.859375 58.546875 50.785156 C 59.800781 50.730469 61.058594 50.757812 62.316406 50.734375 Z M 62.316406 50.734375 "/>
<path style=" stroke:none;fill-rule:nonzero;fill:rgb(80%,80%,80%);fill-opacity:1;" d="M 27.164062 50.847656 C 29.097656 50.769531 31.035156 50.820312 32.972656 50.804688 C 41.492188 50.792969 50.023438 50.832031 58.546875 50.785156 C 58.535156 51.859375 58.542969 52.929688 58.5625 54 C 48.097656 53.976562 37.632812 54 27.167969 53.988281 C 27.148438 52.945312 27.125 51.886719 27.164062 50.847656 Z M 27.164062 50.847656 "/>
<path style=" stroke:none;fill-rule:nonzero;fill:rgb(65.098039%,85.490196%,91.372549%);fill-opacity:1;" d="M 10.640625 54.113281 C 11.148438 54.011719 11.695312 54.015625 12.210938 54.019531 C 14.96875 54.050781 17.726562 54 20.480469 54.042969 C 20.5 55.003906 20.5 55.964844 20.472656 56.921875 C 17.191406 56.914062 13.910156 56.933594 10.632812 56.914062 C 10.636719 55.980469 10.578125 55.042969 10.640625 54.113281 Z M 10.640625 54.113281 "/>
<path style=" stroke:none;fill-rule:nonzero;fill:rgb(89.803922%,89.803922%,89.803922%);fill-opacity:1;" d="M 58.5625 54 C 59.8125 53.984375 61.0625 53.980469 62.3125 54.011719 C 62.308594 54.523438 62.308594 55.039062 62.3125 55.550781 C 61.058594 55.578125 59.808594 55.570312 58.554688 55.5625 C 58.554688 55.042969 58.558594 54.523438 58.5625 54 Z M 58.5625 54 "/>
<path style=" stroke:none;fill-rule:nonzero;fill:rgb(80%,80%,80%);fill-opacity:1;" d="M 27.164062 55.59375 C 37.617188 55.542969 48.101562 55.597656 58.554688 55.5625 C 58.535156 56.644531 58.53125 57.722656 58.570312 58.800781 L 58.445312 58.800781 C 48.019531 58.800781 37.582031 58.839844 27.15625 58.78125 C 27.152344 57.71875 27.125 56.652344 27.164062 55.59375 Z M 27.164062 55.59375 "/>
<path style=" stroke:none;fill-rule:nonzero;fill:rgb(71.764706%,71.764706%,71.764706%);fill-opacity:1;" d="M 58.554688 55.5625 C 59.808594 55.570312 61.058594 55.578125 62.3125 55.550781 C 62.328125 56.636719 62.328125 57.71875 62.316406 58.800781 C 61.070312 58.816406 59.820312 58.8125 58.570312 58.800781 C 58.53125 57.722656 58.535156 56.644531 58.554688 55.5625 Z M 58.554688 55.5625 "/>
<path style=" stroke:none;fill-rule:nonzero;fill:rgb(24.705882%,23.921569%,33.72549%);fill-opacity:1;" d="M 126.5 58.34375 C 128.710938 58.292969 130.933594 58.351562 133.148438 58.320312 C 133.242188 60.25 133.164062 62.1875 133.191406 64.121094 C 133.164062 69.316406 133.238281 74.519531 133.152344 79.714844 C 130.921875 79.707031 128.695312 79.710938 126.464844 79.710938 C 126.382812 73.050781 126.464844 66.378906 126.421875 59.714844 C 126.421875 59.261719 126.425781 58.792969 126.5 58.34375 Z M 126.5 58.34375 "/>
<path style=" stroke:none;fill-rule:nonzero;fill:rgb(93.72549%,69.803922%,42.745098%);fill-opacity:1;" d="M 146.910156 58.375 C 147.195312 58.597656 147.460938 58.828125 147.734375 59.058594 C 147.472656 59.246094 147.160156 59.449219 146.988281 59.730469 C 146.84375 60.238281 147.414062 60.507812 147.714844 60.804688 C 147.433594 61.015625 147.167969 61.25 146.894531 61.476562 C 146.414062 61.253906 145.945312 60.988281 145.476562 60.738281 C 145.582031 60.164062 145.574219 59.671875 145.476562 59.09375 C 145.949219 58.851562 146.414062 58.558594 146.910156 58.375 Z M 146.910156 58.375 "/>
<path style=" stroke:none;fill-rule:nonzero;fill:rgb(100%,38.823529%,27.843137%);fill-opacity:1;" d="M 146.910156 58.375 C 147.835938 58.289062 148.765625 58.332031 149.710938 58.328125 C 157.640625 58.324219 165.570312 58.328125 173.503906 58.328125 C 180.441406 58.328125 187.382812 58.320312 194.324219 58.328125 C 194.335938 58.558594 194.34375 58.78125 194.355469 59.011719 L 194.292969 59.011719 C 180.007812 59.050781 165.710938 59.019531 151.421875 59.03125 C 150.191406 59.035156 148.960938 59 147.734375 59.058594 C 147.460938 58.828125 147.195312 58.597656 146.910156 58.375 Z M 146.910156 58.375 "/>
<path style=" stroke:none;fill-rule:nonzero;fill:rgb(77.647059%,13.333333%,16.078431%);fill-opacity:1;" d="M 194.324219 58.328125 C 194.804688 58.328125 195.28125 58.328125 195.761719 58.328125 L 195.761719 59.011719 C 195.292969 59.007812 194.824219 59.007812 194.355469 59.011719 C 194.34375 58.78125 194.335938 58.558594 194.324219 58.328125 Z M 194.324219 58.328125 "/>
<path style=" stroke:none;fill-rule:nonzero;fill:rgb(89.803922%,89.803922%,89.803922%);fill-opacity:1;" d="M 58.445312 58.800781 L 58.570312 58.800781 C 59.820312 58.8125 61.070312 58.816406 62.316406 58.800781 C 62.316406 59.335938 62.316406 59.875 62.316406 60.414062 C 61.070312 60.410156 59.820312 60.414062 58.574219 60.40625 C 58.535156 59.871094 58.492188 59.335938 58.445312 58.800781 Z M 58.445312 58.800781 "/>
<path style=" stroke:none;fill-rule:nonzero;fill:rgb(96.470588%,90.196078%,71.372549%);fill-opacity:1;" d="M 147.734375 59.058594 C 148.960938 59 150.191406 59.035156 151.421875 59.03125 C 165.710938 59.019531 180.007812 59.050781 194.292969 59.011719 C 194.304688 59.597656 194.308594 60.183594 194.296875 60.773438 C 179.597656 60.777344 164.902344 60.773438 150.199219 60.773438 C 149.375 60.78125 148.539062 60.746094 147.714844 60.804688 C 147.414062 60.507812 146.84375 60.238281 146.988281 59.730469 C 147.160156 59.449219 147.472656 59.246094 147.734375 59.058594 Z M 147.734375 59.058594 "/>
<path style=" stroke:none;fill-rule:nonzero;fill:rgb(97.254902%,34.901961%,40.392157%);fill-opacity:1;" d="M 194.292969 59.011719 L 194.355469 59.011719 C 194.824219 59.007812 195.292969 59.007812 195.761719 59.011719 C 195.765625 59.597656 195.765625 60.1875 195.761719 60.773438 C 195.320312 60.785156 194.882812 60.792969 194.441406 60.804688 C 194.414062 61.035156 194.390625 61.269531 194.363281 61.503906 L 194.277344 61.503906 C 194.285156 61.261719 194.292969 61.015625 194.296875 60.773438 C 194.308594 60.183594 194.304688 59.597656 194.292969 59.011719 Z M 194.292969 59.011719 "/>
<path style=" stroke:none;fill-rule:nonzero;fill:rgb(6.27451%,21.568627%,32.941176%);fill-opacity:1;" d="M 145.476562 59.09375 C 145.574219 59.671875 145.582031 60.164062 145.476562 60.738281 C 144.957031 60.464844 144.4375 60.195312 143.917969 59.925781 C 144.4375 59.644531 144.957031 59.371094 145.476562 59.09375 Z M 145.476562 59.09375 "/>
<path style=" stroke:none;fill-rule:nonzero;fill:rgb(80%,80%,80%);fill-opacity:1;" d="M 27.15625 60.4375 C 37.625 60.375 48.105469 60.433594 58.574219 60.40625 C 58.527344 61.488281 58.535156 62.570312 58.554688 63.652344 C 48.089844 63.628906 37.617188 63.6875 27.15625 63.625 C 27.144531 62.5625 27.144531 61.5 27.15625 60.4375 Z M 27.15625 60.4375 "/>
<path style=" stroke:none;fill-rule:nonzero;fill:rgb(71.764706%,71.764706%,71.764706%);fill-opacity:1;" d="M 58.574219 60.40625 C 59.820312 60.414062 61.070312 60.410156 62.316406 60.414062 C 62.324219 61.492188 62.328125 62.574219 62.316406 63.648438 C 61.0625 63.652344 59.808594 63.648438 58.554688 63.652344 C 58.535156 62.570312 58.527344 61.488281 58.574219 60.40625 Z M 58.574219 60.40625 "/>
<path style=" stroke:none;fill-rule:nonzero;fill:rgb(24.705882%,23.921569%,33.72549%);fill-opacity:1;" d="M 10.628906 60.585938 C 13.917969 60.582031 17.199219 60.578125 20.488281 60.589844 C 20.492188 61.546875 20.492188 62.507812 20.488281 63.472656 C 17.199219 63.480469 13.917969 63.476562 10.628906 63.472656 C 10.621094 62.507812 10.621094 61.546875 10.628906 60.585938 Z M 10.628906 60.585938 "/>
<path style=" stroke:none;fill-rule:nonzero;fill:rgb(100%,38.823529%,27.843137%);fill-opacity:1;" d="M 147.714844 60.804688 C 148.539062 60.746094 149.375 60.78125 150.199219 60.773438 C 164.902344 60.773438 179.597656 60.777344 194.296875 60.773438 C 194.292969 61.015625 194.285156 61.261719 194.277344 61.503906 C 187.554688 61.511719 180.828125 61.503906 174.105469 61.507812 C 165.890625 61.507812 157.679688 61.507812 149.46875 61.507812 C 148.597656 61.507812 147.753906 61.53125 146.894531 61.476562 C 147.167969 61.25 147.433594 61.015625 147.714844 60.804688 Z M 147.714844 60.804688 "/>
<path style=" stroke:none;fill-rule:nonzero;fill:rgb(77.647059%,13.333333%,16.078431%);fill-opacity:1;" d="M 194.441406 60.804688 C 194.882812 60.792969 195.320312 60.785156 195.761719 60.773438 C 195.757812 61.015625 195.757812 61.257812 195.753906 61.5 C 195.289062 61.5 194.824219 61.503906 194.363281 61.503906 C 194.390625 61.269531 194.414062 61.035156 194.441406 60.804688 Z M 194.441406 60.804688 "/>
<path style=" stroke:none;fill-rule:nonzero;fill:rgb(89.803922%,89.803922%,89.803922%);fill-opacity:1;" d="M 58.554688 63.652344 C 59.808594 63.648438 61.0625 63.652344 62.316406 63.648438 C 62.304688 69.433594 62.277344 75.222656 62.300781 81.007812 C 62.300781 81.703125 62.226562 82.390625 62.171875 83.082031 C 61.347656 80.699219 60.304688 78.433594 58.757812 76.429688 C 58.648438 76.285156 58.542969 76.144531 58.433594 76 C 58.648438 71.898438 58.414062 67.765625 58.554688 63.652344 Z M 58.554688 63.652344 "/>
<path style=" stroke:none;fill-rule:nonzero;fill:rgb(65.098039%,85.490196%,91.372549%);fill-opacity:1;" d="M 87.695312 64.753906 C 89.949219 64.753906 92.207031 64.722656 94.460938 64.769531 C 94.4375 69.75 94.46875 74.726562 94.445312 79.703125 C 92.195312 79.699219 89.949219 79.683594 87.703125 79.691406 C 87.6875 74.710938 87.699219 69.734375 87.695312 64.753906 Z M 87.695312 64.753906 "/>
<path style=" stroke:none;fill-rule:nonzero;fill:rgb(24.705882%,23.921569%,33.72549%);fill-opacity:1;" d="M 95.492188 66.820312 C 97.738281 66.792969 99.988281 66.820312 102.238281 66.835938 C 102.230469 71.125 102.242188 75.417969 102.230469 79.703125 C 99.984375 79.714844 97.738281 79.710938 95.492188 79.710938 C 95.464844 75.417969 95.464844 71.117188 95.492188 66.820312 Z M 95.492188 66.820312 "/>
<path style=" stroke:none;fill-rule:nonzero;fill:rgb(65.098039%,85.490196%,91.372549%);fill-opacity:1;" d="M 118.660156 66.816406 C 120.902344 66.808594 123.144531 66.8125 125.386719 66.8125 C 125.398438 71.132812 125.402344 75.457031 125.382812 79.777344 C 123.214844 79.015625 120.9375 78.625 118.640625 78.546875 C 118.628906 74.636719 118.664062 70.726562 118.660156 66.816406 Z M 118.660156 66.816406 "/>
<path style=" stroke:none;fill-rule:nonzero;fill:rgb(29.803922%,55.686275%,70.588235%);fill-opacity:1;" d="M 39.925781 68.046875 C 39.933594 71.988281 39.925781 75.929688 39.929688 79.871094 C 37.859375 80.382812 36.328125 81.277344 34.859375 82.820312 C 31.453125 80.824219 28.050781 78.8125 24.648438 76.804688 C 28.207031 71.832031 33.839844 68.597656 39.925781 68.046875 Z M 39.925781 68.046875 "/>
<path style=" stroke:none;fill-rule:nonzero;fill:rgb(100%,38.823529%,27.843137%);fill-opacity:1;" d="M 43.753906 68.0625 C 49.476562 68.550781 54.871094 71.492188 58.433594 76 C 58.542969 76.144531 58.648438 76.285156 58.757812 76.429688 C 58.570312 77.0625 58.484375 77.652344 58.507812 78.3125 C 58.574219 81.90625 58.453125 85.5 58.574219 89.085938 L 58.453125 89.074219 C 56.042969 88.804688 53.628906 88.554688 51.21875 88.273438 C 50.984375 86.355469 50.265625 84.53125 49.007812 83.050781 C 47.660156 81.429688 45.800781 80.34375 43.75 79.882812 C 43.738281 75.945312 43.730469 72.003906 43.753906 68.0625 Z M 43.753906 68.0625 "/>
<path style=" stroke:none;fill-rule:nonzero;fill:rgb(24.705882%,23.921569%,33.72549%);fill-opacity:1;" d="M 154.332031 68.128906 C 161.074219 68.113281 167.894531 68.128906 174.644531 68.121094 C 178.113281 68.125 181.597656 68.113281 185.066406 68.125 C 185.957031 68.109375 186.632812 68.871094 186.617188 69.777344 C 186.640625 74.421875 186.609375 79.097656 186.632812 83.746094 C 176.808594 83.730469 166.988281 83.714844 157.164062 83.742188 C 155.691406 83.75 154.214844 83.734375 152.742188 83.75 C 152.765625 79.097656 152.738281 74.425781 152.753906 69.777344 C 152.742188 68.847656 153.421875 68.105469 154.332031 68.128906 Z M 154.332031 68.128906 "/>
<path style=" stroke:none;fill-rule:nonzero;fill:rgb(100%,38.823529%,27.843137%);fill-opacity:1;" d="M 110.863281 70.8125 C 113.113281 70.832031 115.363281 70.8125 117.613281 70.824219 C 117.625 73.398438 117.605469 75.976562 117.625 78.546875 C 115.320312 78.597656 113.039062 78.976562 110.859375 79.722656 C 110.867188 76.753906 110.847656 73.785156 110.863281 70.8125 Z M 110.863281 70.8125 "/>
<path style=" stroke:none;fill-rule:nonzero;fill:rgb(100%,38.823529%,27.843137%);fill-opacity:1;" d="M 79.921875 70.902344 C 82.164062 70.894531 84.410156 70.894531 86.65625 70.902344 C 86.65625 73.832031 86.660156 76.761719 86.652344 79.691406 C 84.402344 79.691406 82.15625 79.691406 79.910156 79.691406 C 79.902344 76.761719 79.894531 73.832031 79.921875 70.902344 Z M 79.921875 70.902344 "/>
<path style=" stroke:none;fill-rule:nonzero;fill:rgb(100%,38.823529%,27.843137%);fill-opacity:1;" d="M 156.363281 71.554688 C 156.828125 71.507812 157.304688 71.511719 157.773438 71.511719 C 166.382812 71.535156 174.996094 71.492188 183.605469 71.53125 C 183.734375 72.898438 183.648438 74.246094 183.671875 75.621094 C 183.648438 77.066406 183.730469 78.511719 183.613281 79.941406 C 174.515625 79.976562 165.414062 79.960938 156.320312 79.949219 C 156.1875 77.863281 156.292969 75.757812 156.257812 73.664062 C 156.28125 72.980469 156.171875 72.214844 156.363281 71.554688 Z M 156.363281 71.554688 "/>
<path style=" stroke:none;fill-rule:nonzero;fill:rgb(60.392157%,79.215686%,90.196078%);fill-opacity:1;" d="M 103.292969 73.253906 C 105.539062 73.253906 107.78125 73.242188 110.027344 73.261719 C 110.035156 75.398438 110.042969 77.535156 110.011719 79.671875 C 107.777344 79.757812 105.53125 79.691406 103.292969 79.707031 C 103.25 77.5625 103.246094 75.398438 103.292969 73.253906 Z M 103.292969 73.253906 "/>
<path style=" stroke:none;fill-rule:nonzero;fill:rgb(29.803922%,55.686275%,70.588235%);fill-opacity:1;" d="M 72.152344 73.523438 C 74.390625 73.5625 76.625 73.527344 78.863281 73.542969 C 78.863281 75.59375 78.867188 77.644531 78.859375 79.691406 C 76.613281 79.691406 74.367188 79.691406 72.125 79.691406 C 72.136719 77.636719 72.078125 75.574219 72.152344 73.523438 Z M 72.152344 73.523438 "/>
<path style=" stroke:none;fill-rule:nonzero;fill:rgb(94.901961%,32.54902%,21.568627%);fill-opacity:1;" d="M 58.757812 76.429688 C 60.304688 78.433594 61.347656 80.699219 62.171875 83.082031 C 62.441406 85.195312 62.234375 87.371094 62.300781 89.496094 C 61.054688 89.371094 59.8125 89.226562 58.574219 89.085938 C 58.453125 85.5 58.574219 81.90625 58.507812 78.3125 C 58.484375 77.652344 58.570312 77.0625 58.757812 76.429688 Z M 58.757812 76.429688 "/>
<path style=" stroke:none;fill-rule:nonzero;fill:rgb(24.705882%,23.921569%,33.72549%);fill-opacity:1;" d="M 117.625 78.546875 C 117.960938 78.539062 118.300781 78.539062 118.640625 78.546875 C 120.9375 78.625 123.214844 79.015625 125.382812 79.777344 C 133.398438 82.535156 139.414062 90.03125 140.21875 98.507812 C 140.371094 100.097656 140.386719 101.578125 140.222656 103.171875 C 139.832031 107.304688 138.222656 111.289062 135.671875 114.558594 C 134.492188 116.0625 133.121094 117.429688 131.613281 118.605469 C 127.917969 121.460938 123.363281 123.085938 118.695312 123.207031 C 114.34375 123.339844 109.988281 122.175781 106.296875 119.863281 C 102.882812 117.75 100.078125 114.703125 98.226562 111.136719 C 97.898438 110.496094 97.601562 109.84375 97.328125 109.175781 C 97.140625 108.695312 96.960938 108.210938 96.800781 107.71875 C 96.601562 107.078125 96.425781 106.429688 96.277344 105.777344 C 96.175781 105.300781 96.078125 104.820312 96.003906 104.339844 C 95.910156 103.6875 95.832031 103.035156 95.792969 102.375 C 95.765625 101.890625 95.746094 101.40625 95.746094 100.925781 C 95.746094 100.269531 95.769531 99.617188 95.824219 98.960938 C 95.851562 98.699219 95.875 98.433594 95.902344 98.167969 C 96.015625 97.296875 96.160156 96.433594 96.363281 95.582031 C 96.484375 95.097656 96.621094 94.621094 96.765625 94.144531 C 96.976562 93.492188 97.210938 92.839844 97.476562 92.207031 C 97.667969 91.753906 97.878906 91.316406 98.09375 90.875 C 98.347656 90.398438 98.609375 89.921875 98.886719 89.453125 C 101.550781 84.933594 105.890625 81.40625 110.859375 79.722656 C 113.039062 78.976562 115.320312 78.597656 117.625 78.546875 Z M 117.625 78.546875 "/>
<path style=" stroke:none;fill-rule:nonzero;fill:rgb(24.705882%,23.921569%,33.72549%);fill-opacity:1;" d="M 22.707031 80.101562 C 26.113281 82.101562 29.511719 84.113281 32.914062 86.121094 C 32.464844 87.566406 32.234375 89.042969 32.488281 90.554688 C 32.957031 93.898438 35.316406 96.824219 38.46875 98.011719 C 40.808594 98.925781 43.367188 98.796875 45.667969 97.824219 C 47.964844 101.027344 50.253906 104.230469 52.535156 107.441406 C 47.265625 110.59375 40.671875 111.222656 34.882812 109.203125 C 30.292969 107.617188 26.3125 104.402344 23.777344 100.253906 C 21.722656 96.914062 20.636719 93.003906 20.660156 89.082031 C 20.664062 85.976562 21.394531 82.910156 22.707031 80.101562 Z M 22.707031 80.101562 "/>
<path style=" stroke:none;fill-rule:nonzero;fill:rgb(24.705882%,23.921569%,33.72549%);fill-opacity:1;" d="M 152.742188 83.429688 C 154.214844 83.414062 155.691406 83.425781 157.164062 83.421875 C 158.199219 84.582031 159.390625 85.578125 160.445312 86.714844 C 159.066406 86.730469 157.679688 86.691406 156.300781 86.730469 C 156.15625 88.109375 156.214844 89.519531 156.273438 90.90625 C 159.15625 90.941406 162.046875 90.910156 164.929688 90.921875 C 167.128906 93.046875 169.296875 95.210938 171.539062 97.296875 C 171.542969 97.707031 171.542969 98.121094 171.546875 98.53125 C 172.0625 98.566406 172.582031 98.589844 173.105469 98.59375 C 173.953125 99.796875 175.039062 100.636719 176.066406 101.679688 C 177.101562 102.648438 177.945312 103.691406 179.1875 104.421875 C 179.191406 105.011719 179.195312 105.601562 179.199219 106.191406 C 179.757812 106.222656 180.320312 106.246094 180.878906 106.25 C 182.027344 107.464844 183.25 108.601562 184.46875 109.746094 C 185.15625 110.421875 185.84375 111.082031 186.621094 111.648438 C 186.609375 113 186.652344 114.351562 186.617188 115.703125 C 186.609375 116.5625 185.945312 117.273438 185.070312 117.25 C 176.285156 117.269531 167.378906 117.246094 158.585938 117.261719 C 157.089844 117.226562 155.578125 117.3125 154.082031 117.226562 C 153.320312 117.160156 152.742188 116.460938 152.761719 115.699219 C 152.734375 104.960938 152.777344 94.164062 152.742188 83.429688 Z M 152.742188 83.429688 "/>
<path style=" stroke:none;fill-rule:nonzero;fill:rgb(24.705882%,23.921569%,33.72549%);fill-opacity:1;" d="M 156.882812 83.421875 C 166.800781 83.394531 176.71875 83.410156 186.632812 83.425781 C 186.613281 92.921875 186.636719 102.421875 186.621094 111.917969 C 185.835938 111.347656 185.140625 110.679688 184.449219 109.996094 C 183.21875 108.84375 181.984375 107.691406 180.824219 106.464844 C 181.65625 106.464844 182.484375 106.457031 183.316406 106.433594 C 183.398438 105.039062 183.375 103.648438 183.335938 102.25 C 181.949219 102.191406 180.554688 102.1875 179.167969 102.246094 C 179.089844 103.039062 179.105469 103.824219 179.117188 104.621094 C 177.863281 103.882812 177.011719 102.832031 175.964844 101.851562 C 174.925781 100.800781 173.832031 99.953125 172.976562 98.738281 C 173.851562 98.734375 174.730469 98.726562 175.605469 98.6875 C 175.609375 97.289062 175.644531 95.898438 175.578125 94.5 C 174.195312 94.5 172.808594 94.457031 171.425781 94.519531 C 171.375 95.488281 171.398438 96.460938 171.394531 97.429688 C 169.132812 95.324219 166.945312 93.140625 164.722656 90.992188 C 165.773438 90.992188 166.820312 91.003906 167.867188 90.960938 C 167.882812 89.617188 167.949219 88.257812 167.855469 86.917969 C 167.765625 86.660156 167.203125 86.789062 166.984375 86.742188 C 164.722656 86.753906 162.460938 86.753906 160.199219 86.746094 C 159.128906 85.597656 157.929688 84.59375 156.882812 83.421875 Z M 156.882812 83.421875 "/>
<path style=" stroke:none;fill-rule:nonzero;fill:rgb(100%,100%,100%);fill-opacity:1;" d="M 118.207031 84.277344 C 122.355469 84.296875 126.40625 85.953125 129.410156 88.804688 C 128.003906 88.773438 126.597656 88.785156 125.191406 88.816406 C 120.535156 88.800781 115.882812 88.804688 111.226562 88.816406 C 110.394531 88.785156 109.566406 88.765625 108.734375 88.8125 C 108.09375 88.816406 107.464844 88.734375 106.832031 88.671875 C 109.886719 85.8125 114.023438 84.214844 118.207031 84.277344 Z M 118.207031 84.277344 "/>
<path style=" stroke:none;fill-rule:nonzero;fill:rgb(29.803922%,55.686275%,70.588235%);fill-opacity:1;" d="M 156.332031 86.761719 C 157.726562 86.722656 159.125 86.761719 160.519531 86.746094 C 162.78125 86.753906 165.042969 86.753906 167.304688 86.742188 C 167.523438 86.789062 168.085938 86.660156 168.175781 86.917969 C 168.269531 88.257812 168.203125 89.617188 168.191406 90.960938 C 167.144531 91.003906 166.09375 90.992188 165.042969 90.992188 C 162.132812 90.980469 159.21875 91.011719 156.304688 90.976562 C 156.246094 89.578125 156.1875 88.15625 156.332031 86.761719 Z M 156.332031 86.761719 "/>
<path style=" stroke:none;fill-rule:nonzero;fill:rgb(100%,38.823529%,27.843137%);fill-opacity:1;" d="M 171.769531 86.78125 C 172.796875 86.695312 173.839844 86.761719 174.871094 86.734375 C 175.171875 86.769531 175.660156 86.664062 175.898438 86.871094 C 175.957031 88.230469 175.964844 89.636719 175.875 90.992188 C 174.5 90.992188 173.125 91.019531 171.75 90.96875 C 171.71875 89.578125 171.660156 88.167969 171.769531 86.78125 Z M 171.769531 86.78125 "/>
<path style=" stroke:none;fill-rule:nonzero;fill:rgb(94.901961%,97.647059%,100%);fill-opacity:1;" d="M 183.625 86.761719 C 183.714844 88.164062 183.707031 89.570312 183.628906 90.972656 C 182.246094 91 180.867188 90.988281 179.484375 90.980469 C 179.394531 89.601562 179.441406 88.210938 179.441406 86.828125 C 180.816406 86.65625 182.234375 86.785156 183.625 86.761719 Z M 183.625 86.761719 "/>
<path style=" stroke:none;fill-rule:nonzero;fill:rgb(92.941176%,92.941176%,92.941176%);fill-opacity:1;" d="M 106.832031 88.671875 C 107.464844 88.734375 108.09375 88.816406 108.734375 88.8125 C 108.25 89.429688 107.816406 90.097656 107.378906 90.746094 C 106.5625 90.753906 105.75 90.726562 104.9375 90.730469 C 105.511719 90 106.140625 89.292969 106.832031 88.671875 Z M 106.832031 88.671875 "/>
<path style=" stroke:none;fill-rule:nonzero;fill:rgb(80%,80%,80%);fill-opacity:1;" d="M 69.464844 88.832031 C 70.558594 88.671875 71.640625 88.773438 72.78125 88.753906 C 81.335938 88.789062 89.898438 88.785156 98.457031 88.765625 C 98.601562 88.992188 98.742188 89.222656 98.886719 89.453125 C 98.609375 89.921875 98.347656 90.398438 98.09375 90.875 C 97.230469 90.699219 96.367188 90.71875 95.492188 90.738281 C 86.8125 90.75 78.136719 90.71875 69.453125 90.710938 C 69.453125 90.082031 69.441406 89.460938 69.464844 88.832031 Z M 69.464844 88.832031 "/>
<path style=" stroke:none;fill-rule:nonzero;fill:rgb(81.960784%,81.960784%,81.960784%);fill-opacity:1;" d="M 108.734375 88.8125 C 109.566406 88.765625 110.394531 88.785156 111.226562 88.816406 C 110.429688 89.367188 109.085938 89.722656 108.851562 90.746094 C 108.363281 90.746094 107.871094 90.746094 107.378906 90.746094 C 107.816406 90.097656 108.25 89.429688 108.734375 88.8125 Z M 108.734375 88.8125 "/>
<path style=" stroke:none;fill-rule:nonzero;fill:rgb(92.941176%,92.941176%,92.941176%);fill-opacity:1;" d="M 111.226562 88.816406 C 115.882812 88.804688 120.535156 88.800781 125.191406 88.816406 C 126.25 89.40625 127.292969 90.015625 128.261719 90.75 C 127.050781 90.746094 125.878906 90.800781 124.671875 90.757812 C 123 90.078125 121.214844 89.992188 119.425781 90.058594 C 118.210938 90.117188 117.015625 90.261719 115.886719 90.746094 C 113.542969 90.769531 111.195312 90.753906 108.851562 90.746094 C 109.085938 89.722656 110.429688 89.367188 111.226562 88.816406 Z M 111.226562 88.816406 "/>
<path style=" stroke:none;fill-rule:nonzero;fill:rgb(81.960784%,81.960784%,81.960784%);fill-opacity:1;" d="M 125.191406 88.816406 C 126.597656 88.785156 128.003906 88.773438 129.410156 88.804688 C 130.046875 89.414062 130.636719 90.0625 131.171875 90.753906 C 130.203125 90.765625 129.234375 90.757812 128.261719 90.75 C 127.292969 90.015625 126.25 89.40625 125.191406 88.816406 Z M 125.191406 88.816406 "/>
<path style=" stroke:none;fill-rule:nonzero;fill:rgb(89.803922%,89.803922%,89.803922%);fill-opacity:1;" d="M 58.453125 89.074219 L 58.574219 89.085938 C 59.8125 89.226562 61.054688 89.371094 62.300781 89.496094 C 62.308594 90.777344 62.273438 92.0625 62.292969 93.339844 C 61.042969 93.222656 59.796875 93.085938 58.550781 92.960938 C 58.238281 92.929688 57.929688 92.894531 57.621094 92.855469 C 57.917969 92.824219 58.214844 92.792969 58.515625 92.761719 C 58.542969 91.523438 58.53125 90.308594 58.453125 89.074219 Z M 58.453125 89.074219 "/>
<path style=" stroke:none;fill-rule:nonzero;fill:rgb(81.960784%,81.960784%,81.960784%);fill-opacity:1;" d="M 119.425781 90.058594 C 121.214844 89.992188 123 90.078125 124.671875 90.757812 C 121.746094 90.757812 118.816406 90.769531 115.886719 90.746094 C 117.015625 90.261719 118.210938 90.117188 119.425781 90.058594 Z M 119.425781 90.058594 "/>
<path style=" stroke:none;fill-rule:nonzero;fill:rgb(100%,100%,100%);fill-opacity:1;" d="M 104.9375 90.730469 C 105.75 90.726562 106.5625 90.753906 107.378906 90.746094 C 107.871094 90.746094 108.363281 90.746094 108.851562 90.746094 C 111.195312 90.753906 113.542969 90.769531 115.886719 90.746094 C 118.816406 90.769531 121.746094 90.757812 124.671875 90.757812 C 125.878906 90.800781 127.050781 90.746094 128.261719 90.75 C 129.234375 90.757812 130.203125 90.765625 131.171875 90.753906 C 131.527344 91.222656 131.863281 91.703125 132.175781 92.199219 C 131.464844 92.199219 130.75 92.210938 130.035156 92.242188 C 130.511719 92.925781 131.027344 93.554688 131.59375 94.164062 C 132.121094 94.148438 132.652344 94.128906 133.183594 94.105469 C 135.074219 98.292969 135.085938 103.210938 133.292969 107.429688 C 133.195312 106.890625 133.109375 106.351562 133.035156 105.808594 C 123.9375 105.792969 114.835938 105.789062 105.738281 105.808594 C 105.925781 106.425781 106.148438 107.367188 106.714844 107.730469 C 107.523438 107.820312 108.355469 107.757812 109.171875 107.769531 C 117.160156 107.769531 125.152344 107.761719 133.144531 107.769531 C 132.910156 108.257812 132.65625 108.734375 132.390625 109.203125 C 124.125 109.226562 115.863281 109.191406 107.601562 109.191406 C 106.304688 109.164062 105.007812 109.160156 103.714844 109.230469 C 100.730469 104.171875 100.726562 97.707031 103.652344 92.617188 C 103.789062 93.066406 103.800781 93.757812 104.101562 94.121094 C 104.617188 94.199219 105.148438 94.175781 105.667969 94.171875 C 113.023438 94.128906 120.378906 94.164062 127.730469 94.152344 C 128.875 94.140625 129.996094 94.222656 131.136719 94.066406 C 130.21875 93.3125 129.007812 92.074219 127.734375 92.179688 C 123.175781 92.1875 118.613281 92.1875 114.054688 92.179688 C 113.347656 92.191406 112.585938 92.113281 111.894531 92.28125 C 111.285156 92.519531 110.742188 92.980469 110.207031 93.359375 C 110.03125 92.972656 109.859375 92.585938 109.683594 92.199219 C 108.609375 92.179688 107.539062 92.167969 106.464844 92.203125 C 105.613281 92.21875 104.765625 92.179688 103.917969 92.1875 C 104.242188 91.6875 104.5625 91.195312 104.9375 90.730469 Z M 104.9375 90.730469 "/>
<path style=" stroke:none;fill-rule:nonzero;fill:rgb(65.098039%,85.490196%,91.372549%);fill-opacity:1;" d="M 50.800781 92.121094 C 53.078125 92.289062 55.347656 92.605469 57.621094 92.855469 C 57.929688 92.894531 58.238281 92.929688 58.550781 92.960938 C 58.472656 95.339844 58.554688 97.71875 58.496094 100.09375 C 58.46875 100.738281 58.558594 101.332031 58.726562 101.949219 C 58.660156 102.046875 58.589844 102.136719 58.515625 102.230469 C 57.65625 103.300781 56.699219 104.296875 55.660156 105.199219 C 53.34375 102.035156 51.089844 98.820312 48.800781 95.636719 C 49.609375 94.507812 50.3125 93.433594 50.800781 92.121094 Z M 50.800781 92.121094 "/>
<path style=" stroke:none;fill-rule:nonzero;fill:rgb(80%,80%,80%);fill-opacity:1;" d="M 69.441406 92.238281 C 70.703125 92.085938 71.996094 92.199219 73.269531 92.167969 C 81.335938 92.1875 89.410156 92.125 97.476562 92.207031 C 97.210938 92.839844 96.976562 93.492188 96.765625 94.144531 C 87.660156 94.105469 78.554688 94.152344 69.453125 94.125 C 69.4375 93.496094 69.425781 92.867188 69.441406 92.238281 Z M 69.441406 92.238281 "/>
<path style=" stroke:none;fill-rule:nonzero;fill:rgb(92.941176%,92.941176%,92.941176%);fill-opacity:1;" d="M 103.917969 92.1875 C 104.765625 92.179688 105.613281 92.21875 106.464844 92.203125 C 106.148438 92.839844 105.90625 93.503906 105.667969 94.171875 C 105.148438 94.175781 104.617188 94.199219 104.101562 94.121094 C 103.800781 93.757812 103.789062 93.066406 103.652344 92.617188 C 103.734375 92.476562 103.828125 92.332031 103.917969 92.1875 Z M 103.917969 92.1875 "/>
<path style=" stroke:none;fill-rule:nonzero;fill:rgb(81.960784%,81.960784%,81.960784%);fill-opacity:1;" d="M 106.464844 92.203125 C 107.539062 92.167969 108.609375 92.179688 109.683594 92.199219 C 109.859375 92.585938 110.03125 92.972656 110.207031 93.359375 C 110.742188 92.980469 111.285156 92.519531 111.894531 92.28125 C 112.585938 92.113281 113.347656 92.191406 114.054688 92.179688 C 118.613281 92.1875 123.175781 92.1875 127.734375 92.179688 C 129.007812 92.074219 130.21875 93.3125 131.136719 94.066406 C 129.996094 94.222656 128.875 94.140625 127.730469 94.152344 C 120.378906 94.164062 113.023438 94.128906 105.667969 94.171875 C 105.90625 93.503906 106.148438 92.839844 106.464844 92.203125 Z M 106.464844 92.203125 "/>
<path style=" stroke:none;fill-rule:nonzero;fill:rgb(81.960784%,81.960784%,81.960784%);fill-opacity:1;" d="M 130.035156 92.242188 C 130.75 92.210938 131.464844 92.199219 132.175781 92.199219 C 132.550781 92.816406 132.882812 93.453125 133.183594 94.105469 C 132.652344 94.128906 132.121094 94.148438 131.59375 94.164062 C 131.027344 93.554688 130.511719 92.925781 130.035156 92.242188 Z M 130.035156 92.242188 "/>
<path style=" stroke:none;fill-rule:nonzero;fill:rgb(58.431373%,76.862745%,81.960784%);fill-opacity:1;" d="M 58.550781 92.960938 C 59.796875 93.085938 61.042969 93.222656 62.292969 93.339844 C 62.296875 93.941406 62.269531 94.542969 62.21875 95.140625 C 61.375 97.582031 60.296875 99.890625 58.726562 101.949219 C 58.558594 101.332031 58.46875 100.738281 58.496094 100.09375 C 58.554688 97.71875 58.472656 95.339844 58.550781 92.960938 Z M 58.550781 92.960938 "/>
<path style=" stroke:none;fill-rule:nonzero;fill:rgb(94.901961%,97.647059%,100%);fill-opacity:1;" d="M 156.3125 94.53125 C 157.695312 94.445312 159.085938 94.5 160.464844 94.511719 C 160.515625 95.910156 160.492188 97.296875 160.484375 98.691406 C 159.082031 98.742188 157.675781 98.738281 156.273438 98.695312 C 156.277344 97.3125 156.179688 95.90625 156.3125 94.53125 Z M 156.3125 94.53125 "/>
<path style=" stroke:none;fill-rule:nonzero;fill:rgb(94.901961%,97.647059%,100%);fill-opacity:1;" d="M 164.148438 94.527344 C 165.488281 94.441406 166.847656 94.5 168.191406 94.515625 C 168.234375 95.894531 168.203125 97.277344 168.21875 98.660156 C 166.832031 98.792969 165.429688 98.695312 164.039062 98.722656 C 163.941406 97.375 163.941406 95.972656 164.011719 94.625 Z M 164.148438 94.527344 "/>
<path style=" stroke:none;fill-rule:nonzero;fill:rgb(94.901961%,97.647059%,100%);fill-opacity:1;" d="M 171.425781 94.519531 C 172.808594 94.457031 174.195312 94.5 175.578125 94.5 C 175.644531 95.898438 175.609375 97.289062 175.605469 98.6875 C 174.730469 98.726562 173.851562 98.734375 172.976562 98.738281 C 172.449219 98.734375 171.925781 98.710938 171.402344 98.675781 C 171.402344 98.261719 171.398438 97.84375 171.394531 97.429688 C 171.398438 96.460938 171.375 95.488281 171.425781 94.519531 Z M 171.425781 94.519531 "/>
<path style=" stroke:none;fill-rule:nonzero;fill:rgb(94.901961%,97.647059%,100%);fill-opacity:1;" d="M 179.464844 94.503906 C 180.859375 94.488281 182.25 94.480469 183.636719 94.507812 C 183.707031 95.902344 183.6875 97.289062 183.652344 98.6875 C 182.257812 98.753906 180.851562 98.734375 179.453125 98.699219 C 179.433594 97.304688 179.414062 95.894531 179.464844 94.503906 Z M 179.464844 94.503906 "/>
<path style=" stroke:none;fill-rule:nonzero;fill:rgb(89.803922%,89.803922%,89.803922%);fill-opacity:1;" d="M 62.21875 95.140625 C 62.25 96.140625 62.3125 97.136719 62.296875 98.136719 C 62.28125 106.378906 62.273438 114.617188 62.277344 122.855469 C 62.285156 124.210938 62.238281 125.558594 62.324219 126.914062 C 68.609375 126.925781 74.894531 126.90625 81.179688 126.9375 C 81.199219 128.179688 81.195312 129.425781 81.1875 130.667969 C 73.648438 130.671875 66.101562 130.683594 58.5625 130.644531 C 58.496094 129.761719 58.484375 128.882812 58.5 127.996094 C 58.515625 119.40625 58.484375 110.816406 58.515625 102.230469 C 58.589844 102.136719 58.660156 102.046875 58.726562 101.949219 C 60.296875 99.890625 61.375 97.582031 62.21875 95.140625 Z M 62.21875 95.140625 "/>
<path style=" stroke:none;fill-rule:nonzero;fill:rgb(80%,80%,80%);fill-opacity:1;" d="M 69.457031 95.574219 C 78.421875 95.546875 87.398438 95.601562 96.363281 95.582031 C 96.160156 96.433594 96.015625 97.296875 95.902344 98.167969 L 95.84375 97.570312 C 87.058594 97.527344 78.242188 97.535156 69.453125 97.523438 C 69.4375 96.871094 69.425781 96.226562 69.457031 95.574219 Z M 69.457031 95.574219 "/>
<path style=" stroke:none;fill-rule:nonzero;fill:rgb(81.960784%,81.960784%,81.960784%);fill-opacity:1;" d="M 105.246094 95.613281 C 107.035156 95.515625 108.84375 95.613281 110.636719 95.578125 C 118.128906 95.640625 125.632812 95.5625 133.125 95.621094 C 133.136719 96.257812 133.140625 96.890625 133.136719 97.527344 C 125.480469 97.617188 117.804688 97.523438 110.148438 97.546875 C 108.355469 97.527344 106.5625 97.589844 104.777344 97.511719 C 104.882812 96.976562 104.765625 95.949219 105.246094 95.613281 Z M 105.246094 95.613281 "/>
<path style=" stroke:none;fill-rule:nonzero;fill:rgb(80%,80%,80%);fill-opacity:1;" d="M 69.460938 98.988281 C 78.242188 98.945312 87.042969 98.996094 95.824219 98.960938 C 95.769531 99.617188 95.746094 100.269531 95.746094 100.925781 C 87.683594 100.964844 79.621094 100.925781 71.558594 100.941406 C 70.839844 100.96875 70.140625 100.945312 69.425781 100.871094 C 69.433594 100.242188 69.429688 99.613281 69.460938 98.988281 Z M 69.460938 98.988281 "/>
<path style=" stroke:none;fill-rule:nonzero;fill:rgb(81.960784%,81.960784%,81.960784%);fill-opacity:1;" d="M 106.726562 98.988281 C 115.511719 99 124.296875 98.980469 133.078125 99.003906 C 133.144531 99.667969 133.144531 100.300781 133.085938 100.964844 C 124.460938 100.949219 115.839844 100.960938 107.214844 100.957031 C 106.140625 100.929688 105.195312 101.105469 104.175781 100.722656 C 104.179688 100.226562 104.171875 99.730469 104.1875 99.238281 C 105.019531 98.863281 105.828125 99.011719 106.726562 98.988281 Z M 106.726562 98.988281 "/>
<path style=" stroke:none;fill-rule:nonzero;fill:rgb(80%,80%,80%);fill-opacity:1;" d="M 69.457031 102.386719 C 78.230469 102.324219 87.015625 102.421875 95.792969 102.375 C 95.832031 103.035156 95.910156 103.6875 96.003906 104.339844 C 87.773438 104.378906 79.546875 104.300781 71.316406 104.339844 C 70.6875 104.347656 70.0625 104.320312 69.4375 104.28125 C 69.433594 103.652344 69.425781 103.015625 69.457031 102.386719 Z M 69.457031 102.386719 "/>
<path style=" stroke:none;fill-rule:nonzero;fill:rgb(81.960784%,81.960784%,81.960784%);fill-opacity:1;" d="M 104.832031 102.414062 C 105.378906 102.371094 105.9375 102.382812 106.484375 102.382812 C 115.351562 102.398438 124.21875 102.414062 133.085938 102.398438 C 133.128906 103.050781 133.144531 103.695312 133.136719 104.347656 C 132.472656 104.367188 131.8125 104.382812 131.152344 104.378906 C 122.503906 104.359375 113.847656 104.367188 105.203125 104.328125 C 104.988281 103.703125 104.804688 103.085938 104.832031 102.414062 Z M 104.832031 102.414062 "/>
<path style=" stroke:none;fill-rule:nonzero;fill:rgb(94.901961%,97.647059%,100%);fill-opacity:1;" d="M 156.273438 102.246094 C 157.675781 102.195312 159.082031 102.191406 160.484375 102.246094 C 160.496094 103.640625 160.515625 105.03125 160.46875 106.429688 C 159.074219 106.472656 157.679688 106.46875 156.285156 106.433594 C 156.230469 105.042969 156.25 103.636719 156.273438 102.246094 Z M 156.273438 102.246094 "/>
<path style=" stroke:none;fill-rule:nonzero;fill:rgb(94.901961%,97.647059%,100%);fill-opacity:1;" d="M 164.0625 102.222656 C 165.445312 102.21875 166.835938 102.15625 168.214844 102.273438 C 168.210938 103.65625 168.230469 105.039062 168.199219 106.421875 C 166.796875 106.472656 165.390625 106.492188 163.988281 106.410156 C 164.011719 105.023438 163.875 103.59375 164.0625 102.222656 Z M 164.0625 102.222656 "/>
<path style=" stroke:none;fill-rule:nonzero;fill:rgb(12.54902%,21.176471%,30.196078%);fill-opacity:1;" d="M 171.757812 102.289062 C 173.339844 102.121094 174.960938 102.234375 176.550781 102.238281 C 176.582031 103.75 176.601562 105.253906 176.539062 106.761719 C 174.941406 106.78125 173.339844 106.804688 171.742188 106.75 C 171.722656 105.265625 171.667969 103.773438 171.757812 102.289062 Z M 171.757812 102.289062 "/>
<path style=" stroke:none;fill-rule:nonzero;fill:rgb(12.54902%,21.176471%,30.196078%);fill-opacity:1;" d="M 178.863281 101.929688 C 180.558594 101.859375 182.269531 101.871094 183.972656 101.9375 C 184.019531 103.542969 184.046875 105.144531 183.945312 106.75 C 182.929688 106.777344 181.910156 106.789062 180.890625 106.789062 C 180.199219 106.785156 179.503906 106.757812 178.8125 106.71875 C 178.804688 106.035156 178.800781 105.351562 178.796875 104.664062 C 178.785156 103.75 178.761719 102.839844 178.863281 101.929688 Z M 178.863281 101.929688 "/>
<path style=" stroke:none;fill-rule:nonzero;fill:rgb(100%,100%,100%);fill-opacity:1;" d="M 140.222656 103.171875 C 140.410156 107.179688 140.203125 111.203125 140.332031 115.214844 C 139.8125 115.742188 139.304688 116.285156 138.761719 116.792969 C 138.601562 116.945312 138.441406 117.105469 138.285156 117.261719 C 137.417969 116.359375 136.550781 115.453125 135.671875 114.558594 C 138.222656 111.289062 139.832031 107.304688 140.222656 103.171875 Z M 140.222656 103.171875 "/>
<path style=" stroke:none;fill-rule:nonzero;fill:rgb(80%,80%,80%);fill-opacity:1;" d="M 69.457031 105.804688 C 78.386719 105.75 87.34375 105.804688 96.277344 105.777344 C 96.425781 106.429688 96.601562 107.078125 96.800781 107.71875 C 89.367188 107.78125 81.925781 107.726562 74.488281 107.742188 C 72.808594 107.722656 71.113281 107.800781 69.4375 107.683594 C 69.433594 107.054688 69.425781 106.433594 69.457031 105.804688 Z M 69.457031 105.804688 "/>
<path style=" stroke:none;fill-rule:nonzero;fill:rgb(81.960784%,81.960784%,81.960784%);fill-opacity:1;" d="M 105.738281 105.808594 C 114.835938 105.789062 123.9375 105.792969 133.035156 105.808594 C 133.109375 106.351562 133.195312 106.890625 133.292969 107.429688 C 133.246094 107.546875 133.195312 107.65625 133.144531 107.769531 C 125.152344 107.761719 117.160156 107.769531 109.171875 107.769531 C 108.355469 107.757812 107.523438 107.820312 106.714844 107.730469 C 106.148438 107.367188 105.925781 106.425781 105.738281 105.808594 Z M 105.738281 105.808594 "/>
<path style=" stroke:none;fill-rule:nonzero;fill:rgb(80%,80%,80%);fill-opacity:1;" d="M 69.453125 109.199219 C 78.730469 109.117188 88.042969 109.25 97.328125 109.175781 C 97.601562 109.84375 97.898438 110.496094 98.226562 111.136719 C 90.558594 111.203125 82.890625 111.121094 75.222656 111.148438 C 73.296875 111.125 71.363281 111.203125 69.441406 111.097656 C 69.433594 110.460938 69.425781 109.835938 69.453125 109.199219 Z M 69.453125 109.199219 "/>
<path style=" stroke:none;fill-rule:nonzero;fill:rgb(92.941176%,92.941176%,92.941176%);fill-opacity:1;" d="M 103.714844 109.230469 C 105.007812 109.160156 106.304688 109.164062 107.601562 109.191406 C 108.042969 109.851562 108.507812 110.496094 108.976562 111.136719 C 107.683594 111.128906 106.40625 111.097656 105.121094 111.273438 C 104.605469 110.625 104.132812 109.945312 103.714844 109.230469 Z M 103.714844 109.230469 "/>
<path style=" stroke:none;fill-rule:nonzero;fill:rgb(81.960784%,81.960784%,81.960784%);fill-opacity:1;" d="M 107.601562 109.191406 C 115.863281 109.191406 124.125 109.226562 132.390625 109.203125 C 131.980469 109.898438 131.527344 110.558594 131.03125 111.1875 C 123.679688 111.148438 116.324219 111.1875 108.976562 111.136719 C 108.507812 110.496094 108.042969 109.851562 107.601562 109.191406 Z M 107.601562 109.191406 "/>
<path style=" stroke:none;fill-rule:nonzero;fill:rgb(94.901961%,97.647059%,100%);fill-opacity:1;" d="M 156.363281 109.984375 C 157.71875 109.890625 159.085938 109.957031 160.445312 109.957031 C 160.523438 111.359375 160.523438 112.78125 160.445312 114.179688 C 159.070312 114.191406 157.691406 114.1875 156.3125 114.183594 C 156.261719 112.828125 156.132812 111.308594 156.363281 109.984375 Z M 156.363281 109.984375 "/>
<path style=" stroke:none;fill-rule:nonzero;fill:rgb(94.901961%,97.647059%,100%);fill-opacity:1;" d="M 168.1875 109.972656 C 168.222656 111.371094 168.25 112.78125 168.171875 114.183594 C 166.777344 114.183594 165.394531 114.210938 164.003906 114.160156 C 163.964844 112.78125 163.953125 111.390625 164 110.007812 C 165.386719 109.875 166.796875 109.949219 168.1875 109.972656 Z M 168.1875 109.972656 "/>
<path style=" stroke:none;fill-rule:nonzero;fill:rgb(12.54902%,21.176471%,30.196078%);fill-opacity:1;" d="M 171.785156 109.679688 C 173.449219 109.554688 175.136719 109.652344 176.808594 109.632812 C 176.941406 111.171875 176.9375 112.785156 176.84375 114.328125 L 176.714844 114.476562 C 175.066406 114.570312 173.402344 114.5 171.757812 114.488281 C 171.722656 112.890625 171.644531 111.269531 171.785156 109.679688 Z M 171.785156 109.679688 "/>
<path style=" stroke:none;fill-rule:nonzero;fill:rgb(12.54902%,21.176471%,30.196078%);fill-opacity:1;" d="M 179.222656 109.664062 C 180.789062 109.570312 182.367188 109.632812 183.9375 109.644531 C 184.035156 111.261719 184.042969 112.882812 183.933594 114.496094 C 182.355469 114.527344 180.777344 114.511719 179.199219 114.511719 C 179.105469 112.921875 179.019531 111.242188 179.222656 109.664062 Z M 179.222656 109.664062 "/>
<path style=" stroke:none;fill-rule:nonzero;fill:rgb(100%,100%,100%);fill-opacity:1;" d="M 108.976562 111.136719 C 116.324219 111.1875 123.679688 111.148438 131.03125 111.1875 C 128.464844 114.402344 124.761719 116.632812 120.691406 117.269531 C 116.566406 117.941406 112.25 117.007812 108.792969 114.652344 C 110.316406 114.523438 111.84375 114.570312 113.375 114.511719 C 115.386719 114.636719 117.410156 114.542969 119.425781 114.570312 C 121.109375 114.550781 122.796875 114.625 124.472656 114.523438 C 124.476562 113.890625 124.472656 113.261719 124.464844 112.628906 C 119.902344 112.585938 115.335938 112.628906 110.765625 112.613281 C 109.304688 112.582031 107.84375 112.566406 106.382812 112.671875 C 105.9375 112.226562 105.515625 111.761719 105.121094 111.273438 C 106.40625 111.097656 107.683594 111.128906 108.976562 111.136719 Z M 108.976562 111.136719 "/>
<path style=" stroke:none;fill-rule:nonzero;fill:rgb(80%,80%,80%);fill-opacity:1;" d="M 69.464844 112.636719 C 74.3125 112.550781 79.207031 112.617188 84.0625 112.605469 C 84.078125 113.25 84.082031 113.894531 84.066406 114.539062 C 79.980469 114.582031 75.890625 114.539062 71.804688 114.558594 C 71.015625 114.566406 70.226562 114.542969 69.441406 114.5 C 69.433594 113.882812 69.410156 113.253906 69.464844 112.636719 Z M 69.464844 112.636719 "/>
<path style=" stroke:none;fill-rule:nonzero;fill:rgb(92.941176%,92.941176%,92.941176%);fill-opacity:1;" d="M 106.382812 112.671875 C 107.84375 112.566406 109.304688 112.582031 110.765625 112.613281 C 111.570312 113.339844 112.457031 113.941406 113.375 114.511719 C 111.84375 114.570312 110.316406 114.523438 108.792969 114.652344 C 107.929688 114.066406 107.125 113.40625 106.382812 112.671875 Z M 106.382812 112.671875 "/>
<path style=" stroke:none;fill-rule:nonzero;fill:rgb(81.960784%,81.960784%,81.960784%);fill-opacity:1;" d="M 110.765625 112.613281 C 115.335938 112.628906 119.902344 112.585938 124.464844 112.628906 C 124.472656 113.261719 124.476562 113.890625 124.472656 114.523438 C 122.796875 114.625 121.109375 114.550781 119.425781 114.570312 C 117.410156 114.542969 115.386719 114.636719 113.375 114.511719 C 112.457031 113.941406 111.570312 113.339844 110.765625 112.613281 Z M 110.765625 112.613281 "/>
<path style=" stroke:none;fill-rule:nonzero;fill:rgb(80%,80%,80%);fill-opacity:1;" d="M 10.648438 113.300781 C 11.34375 113.289062 12.035156 113.296875 12.730469 113.320312 C 12.785156 120.703125 12.710938 128.089844 12.761719 135.472656 C 14.570312 135.488281 16.378906 135.464844 18.1875 135.484375 C 20.054688 135.492188 21.925781 135.492188 23.792969 135.484375 C 25.398438 135.472656 27.003906 135.472656 28.613281 135.484375 C 30.480469 135.492188 32.351562 135.492188 34.222656 135.480469 C 35.820312 135.472656 37.421875 135.472656 39.023438 135.484375 C 40.890625 135.492188 42.761719 135.492188 44.628906 135.484375 C 46.234375 135.472656 47.835938 135.472656 49.4375 135.484375 C 51.304688 135.492188 53.171875 135.492188 55.042969 135.484375 C 61.035156 135.480469 67.03125 135.449219 73.023438 135.5 C 73.046875 136.1875 73.042969 136.871094 73.011719 137.554688 C 72.203125 137.578125 71.394531 137.585938 70.582031 137.578125 C 50.605469 137.570312 30.621094 137.59375 10.648438 137.570312 C 10.613281 129.480469 10.613281 121.386719 10.648438 113.300781 Z M 10.648438 113.300781 "/>
<path style=" stroke:none;fill-rule:nonzero;fill:rgb(5.490196%,18.823529%,24.705882%);fill-opacity:1;" d="M 135.671875 114.558594 C 136.550781 115.453125 137.417969 116.359375 138.285156 117.261719 C 136.964844 118.636719 135.601562 119.980469 134.242188 121.320312 C 133.367188 120.414062 132.492188 119.511719 131.613281 118.605469 C 133.121094 117.429688 134.492188 116.0625 135.671875 114.558594 Z M 135.671875 114.558594 "/>
<path style=" stroke:none;fill-rule:nonzero;fill:rgb(24.705882%,23.921569%,33.72549%);fill-opacity:1;" d="M 140.332031 115.214844 C 143.847656 118.644531 147.292969 122.164062 150.773438 125.632812 C 154.460938 129.320312 158.140625 133.015625 161.832031 136.703125 C 161.296875 137.28125 160.75 137.84375 160.191406 138.394531 L 160.121094 138.328125 C 153.449219 131.730469 146.863281 125.042969 140.207031 118.429688 C 139.667969 117.933594 139.207031 117.378906 138.761719 116.792969 C 139.304688 116.285156 139.8125 115.742188 140.332031 115.214844 Z M 140.332031 115.214844 "/>
<path style=" stroke:none;fill-rule:nonzero;fill:rgb(17.254902%,34.509804%,44.313725%);fill-opacity:1;" d="M 138.761719 116.792969 C 139.207031 117.378906 139.667969 117.933594 140.207031 118.429688 C 146.863281 125.042969 153.449219 131.730469 160.121094 138.328125 C 158.710938 140.074219 156.949219 141.523438 155.445312 143.191406 C 149.070312 136.890625 142.769531 130.511719 136.421875 124.179688 C 135.546875 123.320312 134.800781 122.464844 133.855469 121.710938 C 133.984375 121.582031 134.113281 121.449219 134.242188 121.320312 C 135.601562 119.980469 136.964844 118.636719 138.285156 117.261719 C 138.441406 117.105469 138.601562 116.945312 138.761719 116.792969 Z M 138.761719 116.792969 "/>
<path style=" stroke:none;fill-rule:nonzero;fill:rgb(100%,38.823529%,27.843137%);fill-opacity:1;" d="M 28.632812 118.519531 C 30.480469 118.484375 32.335938 118.511719 34.183594 118.507812 C 34.230469 119.457031 34.230469 120.40625 34.222656 121.359375 C 32.351562 121.347656 30.484375 121.351562 28.617188 121.351562 C 28.617188 120.410156 28.59375 119.460938 28.632812 118.519531 Z M 28.632812 118.519531 "/>
<path style=" stroke:none;fill-rule:nonzero;fill:rgb(100%,38.823529%,27.843137%);fill-opacity:1;" d="M 18.199219 120.714844 C 20.054688 120.652344 21.914062 120.703125 23.769531 120.6875 C 23.820312 122.34375 23.78125 123.996094 23.792969 125.652344 C 21.925781 125.671875 20.0625 125.652344 18.191406 125.660156 C 18.203125 124.011719 18.171875 122.363281 18.199219 120.714844 Z M 18.199219 120.714844 "/>
<path style=" stroke:none;fill-rule:nonzero;fill:rgb(24.705882%,23.921569%,33.72549%);fill-opacity:1;" d="M 28.617188 121.351562 C 30.484375 121.351562 32.351562 121.347656 34.222656 121.359375 C 34.21875 126.0625 34.21875 130.773438 34.222656 135.480469 C 32.351562 135.492188 30.480469 135.492188 28.613281 135.484375 C 28.617188 130.773438 28.609375 126.0625 28.617188 121.351562 Z M 28.617188 121.351562 "/>
<path style=" stroke:none;fill-rule:nonzero;fill:rgb(24.705882%,23.921569%,33.72549%);fill-opacity:1;" d="M 133.855469 121.710938 C 134.800781 122.464844 135.546875 123.320312 136.421875 124.179688 C 142.769531 130.511719 149.070312 136.890625 155.445312 143.191406 L 155.519531 143.269531 C 154.835938 143.738281 154.277344 144.28125 153.746094 144.914062 C 149.613281 140.75 145.449219 136.609375 141.3125 132.449219 C 139.472656 130.617188 137.640625 128.777344 135.808594 126.941406 L 135.785156 126.917969 C 134.597656 125.730469 133.414062 124.542969 132.226562 123.355469 C 132.773438 122.8125 133.3125 122.257812 133.855469 121.710938 Z M 133.855469 121.710938 "/>
<path style=" stroke:none;fill-rule:nonzero;fill:rgb(100%,38.823529%,27.843137%);fill-opacity:1;" d="M 39.046875 123.15625 C 40.90625 123.148438 42.765625 123.140625 44.621094 123.160156 C 44.636719 124.882812 44.621094 126.605469 44.625 128.328125 C 42.757812 128.339844 40.890625 128.335938 39.023438 128.332031 C 39.035156 126.605469 38.996094 124.878906 39.046875 123.15625 Z M 39.046875 123.15625 "/>
<path style=" stroke:none;fill-rule:nonzero;fill:rgb(24.705882%,23.921569%,33.72549%);fill-opacity:1;" d="M 18.191406 125.660156 C 20.0625 125.652344 21.925781 125.671875 23.792969 125.652344 C 23.796875 128.929688 23.796875 132.207031 23.792969 135.484375 C 21.925781 135.492188 20.054688 135.492188 18.1875 135.484375 C 18.199219 132.210938 18.183594 128.933594 18.191406 125.660156 Z M 18.191406 125.660156 "/>
<path style=" stroke:none;fill-rule:nonzero;fill:rgb(88.235294%,93.72549%,98.039216%);fill-opacity:1;" d="M 135.785156 126.917969 L 135.808594 126.941406 C 137.640625 128.777344 139.472656 130.617188 141.3125 132.449219 C 140.027344 133.152344 138.777344 133.90625 137.472656 134.570312 C 127.859375 139.574219 117.070312 142.253906 106.238281 142.335938 C 97.695312 142.453125 89.171875 140.933594 81.160156 137.96875 C 81.167969 135.535156 81.1875 133.101562 81.1875 130.667969 C 81.195312 129.425781 81.199219 128.179688 81.179688 126.9375 C 98.496094 126.910156 115.792969 126.960938 133.105469 126.953125 C 134 126.957031 134.890625 126.960938 135.785156 126.917969 Z M 135.785156 126.917969 "/>
<path style=" stroke:none;fill-rule:nonzero;fill:rgb(100%,38.823529%,27.843137%);fill-opacity:1;" d="M 49.445312 127.300781 C 51.296875 127.207031 53.167969 127.273438 55.023438 127.269531 C 55.058594 128.640625 55.035156 130.007812 55.042969 131.378906 C 53.171875 131.378906 51.308594 131.378906 49.4375 131.382812 C 49.449219 130.023438 49.417969 128.660156 49.445312 127.300781 Z M 49.445312 127.300781 "/>
<path style=" stroke:none;fill-rule:nonzero;fill:rgb(24.705882%,23.921569%,33.72549%);fill-opacity:1;" d="M 39.023438 128.332031 C 40.890625 128.335938 42.757812 128.339844 44.625 128.328125 C 44.628906 130.710938 44.621094 133.097656 44.628906 135.484375 C 42.761719 135.492188 40.890625 135.492188 39.023438 135.484375 C 39.023438 133.101562 39.023438 130.714844 39.023438 128.332031 Z M 39.023438 128.332031 "/>
<path style=" stroke:none;fill-rule:nonzero;fill:rgb(24.705882%,23.921569%,33.72549%);fill-opacity:1;" d="M 49.4375 131.382812 C 51.308594 131.378906 53.171875 131.378906 55.042969 131.378906 C 55.042969 132.746094 55.042969 134.117188 55.042969 135.484375 C 53.171875 135.492188 51.304688 135.492188 49.4375 135.484375 C 49.445312 134.117188 49.4375 132.746094 49.4375 131.382812 Z M 49.4375 131.382812 "/>
<path style=" stroke:none;fill-rule:nonzero;fill:rgb(5.490196%,18.823529%,24.705882%);fill-opacity:1;" d="M 161.832031 136.703125 C 163.148438 138.015625 164.464844 139.332031 165.777344 140.65625 C 165.226562 141.207031 164.671875 141.757812 164.128906 142.3125 C 162.765625 141.0625 161.484375 139.71875 160.191406 138.394531 C 160.75 137.84375 161.296875 137.28125 161.832031 136.703125 Z M 161.832031 136.703125 "/>
<path style=" stroke:none;fill-rule:nonzero;fill:rgb(8.627451%,28.235294%,40%);fill-opacity:1;" d="M 160.121094 138.328125 L 160.191406 138.394531 C 161.484375 139.71875 162.765625 141.0625 164.128906 142.3125 C 162.535156 143.921875 160.9375 145.527344 159.328125 147.121094 C 158.066406 145.832031 156.769531 144.574219 155.519531 143.269531 L 155.445312 143.191406 C 156.949219 141.523438 158.710938 140.074219 160.121094 138.328125 Z M 160.121094 138.328125 "/>
<path style=" stroke:none;fill-rule:nonzero;fill:rgb(5.490196%,18.823529%,24.705882%);fill-opacity:1;" d="M 155.519531 143.269531 C 156.769531 144.574219 158.066406 145.832031 159.328125 147.121094 C 158.753906 147.679688 158.195312 148.25 157.625 148.808594 C 156.335938 147.511719 155.035156 146.21875 153.746094 144.914062 C 154.277344 144.28125 154.835938 143.738281 155.519531 143.269531 Z M 155.519531 143.269531 "/>
</g>
</svg>
